<svg id="Warstwa_1" data-name="Warstwa 1" xmlns="http://www.w3.org/2000/svg" viewBox="0 0 536.45 536.45"><defs><style>.cls-1{fill:#212826;}.cls-2{fill:#754c29;}.cls-3{fill:#fff;}</style></defs><title>logo_bg</title><rect class="cls-1" width="536.45" height="536.45"/><path class="cls-2" d="M407.08,327a3.51,3.51,0,0,1-3.5-3.55,3.51,3.51,0,0,1,7,0A3.52,3.52,0,0,1,407.08,327Z" transform="translate(-143.23 -41.71)"/><path class="cls-2" d="M398.26,324.45a3.34,3.34,0,0,1-3.33-3.4,3.36,3.36,0,0,1,6.71,0A3.35,3.35,0,0,1,398.26,324.45Z" transform="translate(-143.23 -41.71)"/><path class="cls-2" d="M406,314.68a3.27,3.27,0,1,1,6.53,0,3.27,3.27,0,1,1-6.53,0Z" transform="translate(-143.23 -41.71)"/><path class="cls-2" d="M415.67,329.08a3.25,3.25,0,0,1-3.23-3.23,3.23,3.23,0,0,1,6.46.06A3.25,3.25,0,0,1,415.67,329.08Z" transform="translate(-143.23 -41.71)"/><path class="cls-2" d="M403.88,312.29a3.24,3.24,0,0,1-3.19,3.21,3.22,3.22,0,1,1,0-6.43A3.23,3.23,0,0,1,403.88,312.29Z" transform="translate(-143.23 -41.71)"/><path class="cls-2" d="M418.06,320.27a3.18,3.18,0,0,1-3.17-3.19,3.15,3.15,0,0,1,3.17-3.18,3.19,3.19,0,1,1,0,6.37Z" transform="translate(-143.23 -41.71)"/><path class="cls-2" d="M414.69,305.9a3,3,0,0,1-3,3,3,3,0,1,1,0-6.08A3,3,0,0,1,414.69,305.9Z" transform="translate(-143.23 -41.71)"/><path class="cls-2" d="M389.5,321.68a3,3,0,0,1-3-3,3,3,0,0,1,6,0A3,3,0,0,1,389.5,321.68Z" transform="translate(-143.23 -41.71)"/><path class="cls-2" d="M402.85,306.68a3,3,0,1,1,3-3A3,3,0,0,1,402.85,306.68Z" transform="translate(-143.23 -41.71)"/><path class="cls-2" d="M394.87,310.13a3,3,0,1,1-3-3A3,3,0,0,1,394.87,310.13Z" transform="translate(-143.23 -41.71)"/><path class="cls-2" d="M420.47,311.27a3,3,0,0,1-3-3,3,3,0,1,1,5.94,0A3,3,0,0,1,420.47,311.27Z" transform="translate(-143.23 -41.71)"/><path class="cls-2" d="M398.82,329.86a2.88,2.88,0,0,1-2.93,2.93,2.9,2.9,0,1,1,0-5.8A2.89,2.89,0,0,1,398.82,329.86Z" transform="translate(-143.23 -41.71)"/><path class="cls-2" d="M404.7,329.37a2.83,2.83,0,0,1,2.89,2.9,2.9,2.9,0,1,1-5.8,0A2.85,2.85,0,0,1,404.7,329.37Z" transform="translate(-143.23 -41.71)"/><path class="cls-2" d="M394.29,304.1a2.86,2.86,0,0,1-2.83-2.78,2.83,2.83,0,1,1,5.65,0A2.85,2.85,0,0,1,394.29,304.1Z" transform="translate(-143.23 -41.71)"/><path class="cls-2" d="M416.85,297.3a2.78,2.78,0,0,1-2.76,2.77,2.75,2.75,0,0,1-2.79-2.8,2.78,2.78,0,0,1,5.55,0Z" transform="translate(-143.23 -41.71)"/><path class="cls-2" d="M408,294.88a2.71,2.71,0,0,1-2.75,2.75,2.73,2.73,0,0,1,0-5.45A2.69,2.69,0,0,1,408,294.88Z" transform="translate(-143.23 -41.71)"/><path class="cls-2" d="M429.62,319.47a2.69,2.69,0,0,1-2.74,2.74,2.73,2.73,0,0,1,0-5.45A2.69,2.69,0,0,1,429.62,319.47Z" transform="translate(-143.23 -41.71)"/><path class="cls-2" d="M422.68,302.23a2.7,2.7,0,0,1-2.7-2.73,2.7,2.7,0,1,1,5.4,0A2.67,2.67,0,0,1,422.68,302.23Z" transform="translate(-143.23 -41.71)"/><path class="cls-2" d="M426.41,310.63a2.66,2.66,0,0,1,2.71-2.62,2.69,2.69,0,0,1,2.63,2.72,2.67,2.67,0,1,1-5.34-.1Z" transform="translate(-143.23 -41.71)"/><path class="cls-2" d="M383.09,310.3a2.65,2.65,0,0,1-2.63-2.63,2.63,2.63,0,1,1,5.26,0A2.63,2.63,0,0,1,383.09,310.3Z" transform="translate(-143.23 -41.71)"/><path class="cls-2" d="M396.46,295.08a2.58,2.58,0,1,1,2.6-2.55A2.56,2.56,0,0,1,396.46,295.08Z" transform="translate(-143.23 -41.71)"/><path class="cls-2" d="M383.27,316.47a2.55,2.55,0,0,1-2.55,2.57,2.56,2.56,0,1,1,0-5.11A2.55,2.55,0,0,1,383.27,316.47Z" transform="translate(-143.23 -41.71)"/><path class="cls-2" d="M388.05,298.9a2.53,2.53,0,0,1-2.57,2.53,2.54,2.54,0,0,1,0-5.07A2.52,2.52,0,0,1,388.05,298.9Z" transform="translate(-143.23 -41.71)"/><path class="cls-2" d="M384.63,327.42a2.47,2.47,0,1,1,4.94.1,2.47,2.47,0,1,1-4.94-.1Z" transform="translate(-143.23 -41.71)"/><path class="cls-2" d="M429,301.91a2.45,2.45,0,0,1,2.45-2.48,2.49,2.49,0,0,1,2.45,2.45,2.45,2.45,0,0,1-2.46,2.47A2.42,2.42,0,0,1,429,301.91Z" transform="translate(-143.23 -41.71)"/><path class="cls-2" d="M413.83,288.5A2.44,2.44,0,0,1,416.3,286a2.49,2.49,0,0,1,2.43,2.46,2.46,2.46,0,0,1-2.48,2.46A2.42,2.42,0,0,1,413.83,288.5Z" transform="translate(-143.23 -41.71)"/><path class="cls-2" d="M410.08,286.14a2.41,2.41,0,0,1-2.42,2.39,2.43,2.43,0,1,1,.07-4.86A2.43,2.43,0,0,1,410.08,286.14Z" transform="translate(-143.23 -41.71)"/><path class="cls-2" d="M427.46,290.9a2.44,2.44,0,0,1-2.39,2.4,2.4,2.4,0,1,1,0-4.8A2.44,2.44,0,0,1,427.46,290.9Z" transform="translate(-143.23 -41.71)"/><path class="cls-2" d="M387.9,292.67a2.33,2.33,0,0,1-2.36-2.36,2.35,2.35,0,0,1,4.7,0A2.35,2.35,0,0,1,387.9,292.67Z" transform="translate(-143.23 -41.71)"/><path class="cls-2" d="M396.6,283.9a2.22,2.22,0,0,1,2.3-2.28,2.18,2.18,0,0,1,2.28,2.3,2.16,2.16,0,0,1-2.3,2.28A2.19,2.19,0,0,1,396.6,283.9Z" transform="translate(-143.23 -41.71)"/><path class="cls-2" d="M426.66,328.07a2.2,2.2,0,0,1-4.39.05,2.2,2.2,0,1,1,4.39-.05Z" transform="translate(-143.23 -41.71)"/><path class="cls-2" d="M436.05,293.12a2.19,2.19,0,1,1-2.18-2.22A2.2,2.2,0,0,1,436.05,293.12Z" transform="translate(-143.23 -41.71)"/><path class="cls-2" d="M376.48,305.32a2.18,2.18,0,0,1-2.21,2.14,2.17,2.17,0,0,1,.06-4.34A2.16,2.16,0,0,1,376.48,305.32Z" transform="translate(-143.23 -41.71)"/><path class="cls-2" d="M415.64,334.47a2.13,2.13,0,0,1-2.14,2.15,2.15,2.15,0,1,1,0-4.29A2.1,2.1,0,0,1,415.64,334.47Z" transform="translate(-143.23 -41.71)"/><path class="cls-2" d="M378.86,296.69a2.12,2.12,0,0,1-2.14,2.15,2.15,2.15,0,1,1,0-4.29A2.1,2.1,0,0,1,378.86,296.69Z" transform="translate(-143.23 -41.71)"/><path class="cls-2" d="M420.82,279.72a2.11,2.11,0,0,1-2.13,2.11,2.12,2.12,0,1,1,0-4.23A2.13,2.13,0,0,1,420.82,279.72Z" transform="translate(-143.23 -41.71)"/><path class="cls-2" d="M407.82,277.44a2.07,2.07,0,0,1,4.14.11,2.07,2.07,0,1,1-4.14-.11Z" transform="translate(-143.23 -41.71)"/><path class="cls-2" d="M388.05,281.5a2,2,0,0,1,2.06-2.05,2.1,2.1,0,0,1,2,2,2.08,2.08,0,0,1-2,2.08A2,2,0,0,1,388.05,281.5Z" transform="translate(-143.23 -41.71)"/><path class="cls-2" d="M437.84,315.1a2,2,0,0,1-2-2,2,2,0,1,1,4.08,0A2,2,0,0,1,437.84,315.1Z" transform="translate(-143.23 -41.71)"/><path class="cls-2" d="M429.48,282.1a2,2,0,0,1-2,2,2,2,0,1,1,0-4.08A2,2,0,0,1,429.48,282.1Z" transform="translate(-143.23 -41.71)"/><path class="cls-2" d="M442.25,304.31a2,2,0,0,1-2,2,2,2,0,1,1,0-4A2,2,0,0,1,442.25,304.31Z" transform="translate(-143.23 -41.71)"/><path class="cls-2" d="M379.09,289.89a2,2,0,0,1-2-2,2,2,0,0,1,4,.06A2,2,0,0,1,379.09,289.89Z" transform="translate(-143.23 -41.71)"/><path class="cls-2" d="M374.07,314.08a2,2,0,0,1-2,1.95,1.95,1.95,0,1,1,0-3.89A2,2,0,0,1,374.07,314.08Z" transform="translate(-143.23 -41.71)"/><path class="cls-2" d="M403.25,275.12a2,2,0,0,1-2,1.94,2,2,0,0,1,0-3.9A2,2,0,0,1,403.25,275.12Z" transform="translate(-143.23 -41.71)"/><path class="cls-2" d="M376.64,325.1a1.87,1.87,0,1,1,3.73,0,1.87,1.87,0,0,1-3.73,0Z" transform="translate(-143.23 -41.71)"/><path class="cls-2" d="M436.28,286.31a1.89,1.89,0,0,1-1.86-1.79,2,2,0,0,1,1.82-1.86,2,2,0,0,1,1.85,1.83A1.83,1.83,0,0,1,436.28,286.31Z" transform="translate(-143.23 -41.71)"/><path class="cls-2" d="M444.44,295.51a1.79,1.79,0,0,1-3.57,0,1.79,1.79,0,1,1,3.57,0Z" transform="translate(-143.23 -41.71)"/><path class="cls-2" d="M383.26,279.09a1.74,1.74,0,0,1-1.75,1.77,1.72,1.72,0,0,1-1.78-1.76,1.83,1.83,0,0,1,1.73-1.77A1.87,1.87,0,0,1,383.26,279.09Z" transform="translate(-143.23 -41.71)"/><path class="cls-2" d="M435.46,320a1.73,1.73,0,0,1,0,3.45,1.64,1.64,0,0,1-1.72-1.74A1.66,1.66,0,0,1,435.46,320Z" transform="translate(-143.23 -41.71)"/><path class="cls-2" d="M394.23,272.73a1.78,1.78,0,0,1-1.77,1.71,1.63,1.63,0,0,1-1.67-1.73,1.59,1.59,0,0,1,1.69-1.7A1.68,1.68,0,0,1,394.23,272.73Z" transform="translate(-143.23 -41.71)"/><path class="cls-2" d="M419.42,271.09a1.66,1.66,0,0,1,3.32,0,1.66,1.66,0,1,1-3.32,0Z" transform="translate(-143.23 -41.71)"/><path class="cls-2" d="M413.9,268.73a1.63,1.63,0,0,1-1.62,1.63,1.72,1.72,0,0,1-1.65-1.67,1.7,1.7,0,0,1,1.69-1.62A1.6,1.6,0,0,1,413.9,268.73Z" transform="translate(-143.23 -41.71)"/><path class="cls-2" d="M369.49,294.3a1.62,1.62,0,0,1-1.6,1.6,1.61,1.61,0,0,1,0-3.21A1.62,1.62,0,0,1,369.49,294.3Z" transform="translate(-143.23 -41.71)"/><path class="cls-2" d="M431.46,273.32a1.62,1.62,0,0,1-1.6,1.59,1.66,1.66,0,0,1-1.6-1.62,1.69,1.69,0,0,1,1.6-1.59A1.64,1.64,0,0,1,431.46,273.32Z" transform="translate(-143.23 -41.71)"/><path class="cls-2" d="M403.47,267.87a1.53,1.53,0,0,1-1.51-1.58,1.44,1.44,0,0,1,1.51-1.5,1.46,1.46,0,0,1,1.55,1.53A1.56,1.56,0,0,1,403.47,267.87Z" transform="translate(-143.23 -41.71)"/><path class="cls-2" d="M365.7,301.55a1.53,1.53,0,0,1,1.54,1.55,1.53,1.53,0,0,1-3.06,0A1.51,1.51,0,0,1,365.7,301.55Z" transform="translate(-143.23 -41.71)"/><path class="cls-2" d="M370.32,284a1.47,1.47,0,0,1,0,2.94,1.47,1.47,0,1,1,0-2.94Z" transform="translate(-143.23 -41.71)"/><path class="cls-2" d="M446.26,286.68a1.4,1.4,0,0,1-1.37,1.44,1.45,1.45,0,0,1-1.46-1.42,1.55,1.55,0,0,1,1.42-1.43A1.46,1.46,0,0,1,446.26,286.68Z" transform="translate(-143.23 -41.71)"/><path class="cls-2" d="M439.85,275.73a1.47,1.47,0,0,1-1.4,1.38,1.41,1.41,0,1,1,0-2.81A1.48,1.48,0,0,1,439.85,275.73Z" transform="translate(-143.23 -41.71)"/><path class="cls-2" d="M385.06,270.32a1.38,1.38,0,0,1-1.36,1.35,1.36,1.36,0,1,1,0-2.72A1.35,1.35,0,0,1,385.06,270.32Z" transform="translate(-143.23 -41.71)"/><path class="cls-2" d="M393.65,263.92a1.24,1.24,0,1,1,2.48,0,1.19,1.19,0,0,1-1.25,1.22A1.18,1.18,0,0,1,393.65,263.92Z" transform="translate(-143.23 -41.71)"/><path class="cls-2" d="M373.91,276.74a1.19,1.19,0,0,1-1.22,1.19,1.27,1.27,0,0,1-1.22-1.22,1.22,1.22,0,0,1,1.27-1.22A1.17,1.17,0,0,1,373.91,276.74Z" transform="translate(-143.23 -41.71)"/><path class="cls-2" d="M369.69,321.8a1.07,1.07,0,0,1,1.12,1.07,1.18,1.18,0,0,1-1.09,1.14,1.15,1.15,0,0,1-1.1-1.11A1,1,0,0,1,369.69,321.8Z" transform="translate(-143.23 -41.71)"/><path class="cls-2" d="M362.23,311.71a1,1,0,0,1,1.07-1.1,1.07,1.07,0,0,1,1.12,1.07,1.18,1.18,0,0,1-1.1,1.13A1.12,1.12,0,0,1,362.23,311.71Z" transform="translate(-143.23 -41.71)"/><path class="cls-2" d="M423.47,261.24a1.06,1.06,0,0,1,1.11,1.07,1.18,1.18,0,0,1-1.1,1.13,1.13,1.13,0,0,1-1.09-1.11A1,1,0,0,1,423.47,261.24Z" transform="translate(-143.23 -41.71)"/><path class="cls-2" d="M450.07,306.71a1,1,0,0,1-1,1,1,1,0,1,1,0-2.06A1,1,0,0,1,450.07,306.71Z" transform="translate(-143.23 -41.71)"/><path class="cls-2" d="M415.69,259.9a.94.94,0,0,1-1,1,1,1,0,0,1-1.07-1,1,1,0,0,1,1-1.08A1,1,0,0,1,415.69,259.9Z" transform="translate(-143.23 -41.71)"/><path class="cls-2" d="M452.25,297.91a1,1,0,0,1-1,1,1.07,1.07,0,0,1-1-1,1.06,1.06,0,0,1,1-1A1,1,0,0,1,452.25,297.91Z" transform="translate(-143.23 -41.71)"/><path class="cls-2" d="M394.48,338.65a1,1,0,0,1-1,1,1,1,0,0,1-1-1,1.06,1.06,0,0,1,1-1A1,1,0,0,1,394.48,338.65Z" transform="translate(-143.23 -41.71)"/><path class="cls-2" d="M433.06,264.72c.07.48-.49,1-1,1a1.12,1.12,0,0,1-1-1,1.06,1.06,0,0,1,1-1A1,1,0,0,1,433.06,264.72Z" transform="translate(-143.23 -41.71)"/><path class="cls-2" d="M445.79,315.31a.77.77,0,0,1,.84-.88c.66,0,.87.33.91.87a.82.82,0,0,1-.87.87C446.18,316.14,445.81,316,445.79,315.31Z" transform="translate(-143.23 -41.71)"/><path class="cls-2" d="M447.27,277.24c.64,0,.83.36.87.87a.84.84,0,0,1-.91.88c-.59-.07-.83-.31-.83-.9A.78.78,0,0,1,447.27,277.24Z" transform="translate(-143.23 -41.71)"/><path class="cls-2" d="M405,257.51a.77.77,0,0,1,.86-.85c.63,0,.83.33.88.85a.84.84,0,0,1-.9.89C405.31,258.34,405,258.12,405,257.51Z" transform="translate(-143.23 -41.71)"/><path class="cls-2" d="M384,336.26a.79.79,0,0,1,.88-.85c.64,0,.83.36.86.87a.83.83,0,0,1-.91.87C384.27,337.09,384,336.84,384,336.26Z" transform="translate(-143.23 -41.71)"/><path class="cls-2" d="M375.91,268.09a.74.74,0,0,1-.77.83.78.78,0,0,1-.86-.79.79.79,0,0,1,.82-.84A.78.78,0,0,1,375.91,268.09Z" transform="translate(-143.23 -41.71)"/><path class="cls-2" d="M386.08,260.9a.75.75,0,0,1,.82.83.73.73,0,0,1-.8.8.78.78,0,0,1-.83-.78A.79.79,0,0,1,386.08,260.9Z" transform="translate(-143.23 -41.71)"/><path class="cls-2" d="M433.29,329.66a.76.76,0,0,1,.78.86c0,.5-.32.74-.83.78a.85.85,0,0,1-.8-.82A.82.82,0,0,1,433.29,329.66Z" transform="translate(-143.23 -41.71)"/><path class="cls-2" d="M422.88,336.88a.77.77,0,0,1-.79.81.8.8,0,0,1-.84-.83.8.8,0,0,1,.85-.81A.77.77,0,0,1,422.88,336.88Z" transform="translate(-143.23 -41.71)"/><path class="cls-2" d="M359.3,291.11a.82.82,0,0,1,.79.78.8.8,0,0,1-.77.79.83.83,0,0,1-.81-.77A.89.89,0,0,1,359.3,291.11Z" transform="translate(-143.23 -41.71)"/><path class="cls-2" d="M440.18,266.92a.65.65,0,0,1,.68-.69.74.74,0,0,1,.73.67.85.85,0,0,1-.74.74A.72.72,0,0,1,440.18,266.92Z" transform="translate(-143.23 -41.71)"/><path class="cls-2" d="M453,289.09a.65.65,0,0,1,.7-.67.75.75,0,0,1,.71.69.85.85,0,0,1-.75.72A.73.73,0,0,1,453,289.09Z" transform="translate(-143.23 -41.71)"/><path class="cls-2" d="M361.49,282.42a.72.72,0,0,1,.74.66.85.85,0,0,1-.72.75.75.75,0,0,1-.69-.71A.66.66,0,0,1,361.49,282.42Z" transform="translate(-143.23 -41.71)"/><path class="cls-2" d="M397.09,255.93c-.42,0-.62-.2-.62-.6a.56.56,0,0,1,.61-.62.53.53,0,0,1,.61.6C397.7,255.73,397.51,255.92,397.09,255.93Z" transform="translate(-143.23 -41.71)"/><path class="cls-2" d="M357.51,300.68c0,.43-.17.62-.59.62s-.62-.19-.63-.6a.56.56,0,0,1,.61-.62A.53.53,0,0,1,357.51,300.68Z" transform="translate(-143.23 -41.71)"/><path class="cls-2" d="M402.89,340.88c0,.42-.19.6-.62.6a.54.54,0,0,1-.6-.62.55.55,0,0,1,.62-.6C402.7,340.26,402.89,340.46,402.89,340.88Z" transform="translate(-143.23 -41.71)"/><path class="cls-2" d="M376.12,333.31a.57.57,0,1,1-.05,1.13.75.75,0,0,1-.54-.56A.74.74,0,0,1,376.12,333.31Z" transform="translate(-143.23 -41.71)"/><path class="cls-2" d="M364.47,274.51a.57.57,0,0,1-1.14,0c0-.23.37-.59.6-.57A.75.75,0,0,1,364.47,274.51Z" transform="translate(-143.23 -41.71)"/><path class="cls-2" d="M426.08,253.53c0,.3-.13.41-.44.4s-.38-.13-.39-.4a.39.39,0,0,1,.42-.43C426,253.1,426.08,253.23,426.08,253.53Z" transform="translate(-143.23 -41.71)"/><path class="cls-2" d="M360.92,320.07c.28,0,.4.13.39.44s-.11.38-.39.38-.43-.12-.43-.4A.37.37,0,0,1,360.92,320.07Z" transform="translate(-143.23 -41.71)"/><path class="cls-2" d="M444.67,324.07c0,.3-.12.42-.42.42s-.4-.12-.41-.38a.39.39,0,0,1,.4-.45C444.53,323.65,444.66,323.78,444.67,324.07Z" transform="translate(-143.23 -41.71)"/><path class="cls-2" d="M388.47,253.31c-.11-.2-.21-.3-.22-.42s.11-.23.26-.22.28.13.24.29S388.61,253.14,388.47,253.31Z" transform="translate(-143.23 -41.71)"/><path class="cls-2" d="M417,250.85c.26,0,.37.15.32.31a.38.38,0,0,1-.27.22.21.21,0,0,1-.23-.29A.76.76,0,0,1,417,250.85Z" transform="translate(-143.23 -41.71)"/><path class="cls-2" d="M354.54,309.9a2,2,0,0,1-.28-.41.2.2,0,0,1,.23-.25c.11,0,.27.13.27.21S354.66,309.68,354.54,309.9Z" transform="translate(-143.23 -41.71)"/><path class="cls-2" d="M450.05,269.3c-.17.13-.26.25-.36.27s-.28-.07-.29-.25.07-.28.23-.25A2.07,2.07,0,0,1,450.05,269.3Z" transform="translate(-143.23 -41.71)"/><path class="cls-2" d="M457.62,308.51c.14.18.28.28.29.38a.39.39,0,0,1-.23.26.22.22,0,0,1-.28-.25C457.41,308.79,457.51,308.7,457.62,308.51Z" transform="translate(-143.23 -41.71)"/><path class="cls-2" d="M377.69,259.29c-.17.14-.25.26-.35.29s-.29-.06-.3-.25.06-.28.22-.26A2.18,2.18,0,0,1,377.69,259.29Z" transform="translate(-143.23 -41.71)"/><path class="cls-2" d="M408.25,248.54c.14.18.28.28.29.39a.36.36,0,0,1-.23.25.22.22,0,0,1-.28-.25C408,248.83,408.14,248.73,408.25,248.54Z" transform="translate(-143.23 -41.71)"/><path class="cls-2" d="M443.16,258.06c.27,0,.39.11.36.27a.4.4,0,0,1-.24.25.22.22,0,0,1-.27-.27C443,258.21,443.13,258.12,443.16,258.06Z" transform="translate(-143.23 -41.71)"/><path class="cls-2" d="M367.71,331.5c-.22.12-.33.23-.44.23s-.19-.17-.21-.27a.19.19,0,0,1,.24-.23A2.28,2.28,0,0,1,367.71,331.5Z" transform="translate(-143.23 -41.71)"/><path class="cls-2" d="M456,280.69c-.11-.19-.21-.3-.22-.42s.11-.23.26-.22a.23.23,0,0,1,.24.3C456.29,280.45,456.17,280.53,456,280.69Z" transform="translate(-143.23 -41.71)"/><path class="cls-2" d="M434.44,256.31c-.11-.2-.21-.31-.22-.43s.11-.22.26-.21.28.13.24.29S434.58,256.14,434.44,256.31Z" transform="translate(-143.23 -41.71)"/><path class="cls-2" d="M366.24,265.45c.26,0,.37.14.32.3a.35.35,0,0,1-.27.22.21.21,0,0,1-.23-.29C366.08,265.58,366.19,265.5,366.24,265.45Z" transform="translate(-143.23 -41.71)"/><path class="cls-3" d="M324.4,332.15V272h21.85q9.83,0,16.43,4a25.52,25.52,0,0,1,9.91,10.84,34.2,34.2,0,0,1,3.3,15.11,33.2,33.2,0,0,1-3.64,15.92A25.76,25.76,0,0,1,362,328.42a31.58,31.58,0,0,1-15.71,3.73ZM364.12,302A23.73,23.73,0,0,0,362,291.71a16.17,16.17,0,0,0-6.1-6.94,17.75,17.75,0,0,0-9.65-2.5H336.09V321.9h10.16a17.27,17.27,0,0,0,9.78-2.62,16.83,16.83,0,0,0,6-7.12A23.84,23.84,0,0,0,364.12,302Z" transform="translate(-143.23 -41.71)"/><path class="cls-3" d="M385,332.15V272h25.49a17.45,17.45,0,0,1,7.67,1.7,18.94,18.94,0,0,1,6.05,4.57,21.55,21.55,0,0,1,3.94,6.44,19.79,19.79,0,0,1,1.4,7.28,21.46,21.46,0,0,1-2.29,9.61,19.19,19.19,0,0,1-6.48,7.49A16.83,16.83,0,0,1,411,312H396.72v20.16Zm11.69-30.4h13.55a6.61,6.61,0,0,0,3.89-1.19,7.87,7.87,0,0,0,2.67-3.43,12.71,12.71,0,0,0,1-5.12,11.21,11.21,0,0,0-1.14-5.29,8.54,8.54,0,0,0-3-3.31,7.31,7.31,0,0,0-3.94-1.14h-13Z" transform="translate(-143.23 -41.71)"/><path class="cls-3" d="M486.91,332.15V292.69l-15.5,29.38h-6.52l-15.41-29.38v39.46H437.79V272h12.62l17.7,34.13L486,272h12.54v60.13Z" transform="translate(-143.23 -41.71)"/><path class="cls-3" d="M324.33,353v-8.63h2.92a4.25,4.25,0,0,1,2.29.58,3.63,3.63,0,0,1,1.38,1.55,5.42,5.42,0,0,1,0,4.46,3.69,3.69,0,0,1-1.43,1.5,4.32,4.32,0,0,1-2.2.54Zm6.2-4.33a4.24,4.24,0,0,0-.38-1.83,3,3,0,0,0-1.11-1.26,3.35,3.35,0,0,0-1.79-.45h-2.07v7.11h2.07a3.2,3.2,0,0,0,1.8-.47,3.07,3.07,0,0,0,1.11-1.28A4.29,4.29,0,0,0,330.53,348.64Z" transform="translate(-143.23 -41.71)"/><path class="cls-3" d="M335.57,353.09a3.12,3.12,0,0,1-1.26-.26,3.05,3.05,0,0,1-1-.72,3.41,3.41,0,0,1-.66-1,3.38,3.38,0,0,1-.24-1.27,3.3,3.3,0,0,1,.41-1.62,3.15,3.15,0,0,1,1.12-1.17,3,3,0,0,1,1.63-.44,2.93,2.93,0,0,1,1.63.44,3.12,3.12,0,0,1,1.1,1.18,3.23,3.23,0,0,1,.41,1.6V350a.46.46,0,0,1,0,.14h-5.41a2.65,2.65,0,0,0,.38,1.2,2.33,2.33,0,0,0,.84.84,2.17,2.17,0,0,0,1.12.31,2.34,2.34,0,0,0,1.17-.32,1.67,1.67,0,0,0,.77-.83l.72.2a2.31,2.31,0,0,1-.6.81,2.79,2.79,0,0,1-.94.57A3.36,3.36,0,0,1,335.57,353.09Zm-2.33-3.57h4.68a2.57,2.57,0,0,0-.37-1.2,2.44,2.44,0,0,0-.84-.82,2.33,2.33,0,0,0-1.14-.29,2.29,2.29,0,0,0-1.13.29,2.41,2.41,0,0,0-.83.82A2.65,2.65,0,0,0,333.24,349.52Z" transform="translate(-143.23 -41.71)"/><path class="cls-3" d="M341.68,353l-2.56-6.31H340l2.17,5.48,2.17-5.48h.81L342.57,353Z" transform="translate(-143.23 -41.71)"/><path class="cls-3" d="M348.79,353.09a3.12,3.12,0,0,1-1.26-.26,3.22,3.22,0,0,1-1.67-1.76,3.38,3.38,0,0,1-.24-1.27,3.2,3.2,0,0,1,.41-1.62,3.07,3.07,0,0,1,1.12-1.17,3,3,0,0,1,1.63-.44,2.93,2.93,0,0,1,1.63.44,3.26,3.26,0,0,1,1.5,2.78V350a.53.53,0,0,1,0,.14h-5.42a2.78,2.78,0,0,0,.38,1.2,2.5,2.5,0,0,0,.84.84,2.23,2.23,0,0,0,1.13.31,2.34,2.34,0,0,0,1.17-.32,1.71,1.71,0,0,0,.77-.83l.72.2a2.31,2.31,0,0,1-.6.81,2.89,2.89,0,0,1-.94.57A3.41,3.41,0,0,1,348.79,353.09Zm-2.33-3.57h4.67a2.46,2.46,0,0,0-.37-1.2,2.33,2.33,0,0,0-.83-.82,2.36,2.36,0,0,0-1.14-.29,2.29,2.29,0,0,0-1.13.29,2.33,2.33,0,0,0-.83.82A2.53,2.53,0,0,0,346.46,349.52Z" transform="translate(-143.23 -41.71)"/><path class="cls-3" d="M353.22,344.1h.83v7.48a.83.83,0,0,0,.17.62.59.59,0,0,0,.41.15,2.2,2.2,0,0,0,.44-.05l.38-.1.14.67a2.93,2.93,0,0,1-.56.16,3.45,3.45,0,0,1-.58.06,1.21,1.21,0,0,1-.89-.33,1.19,1.19,0,0,1-.34-.91Z" transform="translate(-143.23 -41.71)"/><path class="cls-3" d="M359.2,353.09a3.06,3.06,0,0,1-2.27-1,3.5,3.5,0,0,1-.65-1,3.51,3.51,0,0,1,0-2.5,3.41,3.41,0,0,1,.66-1,3.09,3.09,0,0,1,1-.71,3,3,0,0,1,1.26-.26,2.89,2.89,0,0,1,1.25.26,3.13,3.13,0,0,1,1.65,1.75,3.4,3.4,0,0,1-.65,3.54,3,3,0,0,1-1,.71A3.12,3.12,0,0,1,359.2,353.09Zm-2.31-3.24a2.57,2.57,0,0,0,.31,1.27,2.52,2.52,0,0,0,.83.91,2.14,2.14,0,0,0,1.16.33,2,2,0,0,0,1.15-.34,2.41,2.41,0,0,0,.84-.92,2.68,2.68,0,0,0,.32-1.29,2.59,2.59,0,0,0-.32-1.26,2.49,2.49,0,0,0-.84-.92,2.12,2.12,0,0,0-1.15-.34,2.08,2.08,0,0,0-1.16.35,2.67,2.67,0,0,0-.83.93A2.61,2.61,0,0,0,356.89,349.85Z" transform="translate(-143.23 -41.71)"/><path class="cls-3" d="M367,353.09a2.57,2.57,0,0,1-1.42-.41,3.32,3.32,0,0,1-1-1v3.89h-.82v-8.89h.74v1.23a3,3,0,0,1,1-1,2.68,2.68,0,0,1,1.35-.36,2.71,2.71,0,0,1,1.2.27,3.06,3.06,0,0,1,1,.73,3.5,3.5,0,0,1,.62,1,3.39,3.39,0,0,1,.23,1.22,3.63,3.63,0,0,1-.36,1.62,3.07,3.07,0,0,1-1,1.19A2.59,2.59,0,0,1,367,353.09Zm-.23-.73a2,2,0,0,0,.93-.21,2.08,2.08,0,0,0,.71-.57,2.88,2.88,0,0,0,.46-.82,2.74,2.74,0,0,0,0-1.9,2.43,2.43,0,0,0-1.26-1.36,2,2,0,0,0-.92-.21,1.71,1.71,0,0,0-.65.13,2.38,2.38,0,0,0-.65.34,2.26,2.26,0,0,0-.52.5,1.36,1.36,0,0,0-.26.59v1.93a2.72,2.72,0,0,0,.53.8,2.49,2.49,0,0,0,.76.57A2,2,0,0,0,366.72,352.36Z" transform="translate(-143.23 -41.71)"/><path class="cls-3" d="M380.63,353h-.83v-3.52a2.93,2.93,0,0,0-.35-1.61,1.18,1.18,0,0,0-1.05-.52,1.88,1.88,0,0,0-1.28.51,2.7,2.7,0,0,0-.79,1.3V353h-.83v-3.52a3,3,0,0,0-.34-1.62,1.16,1.16,0,0,0-1-.51,1.9,1.9,0,0,0-1.28.49,2.64,2.64,0,0,0-.8,1.3V353h-.83v-6.31H372v1.44a3.06,3.06,0,0,1,1-1.14,2.58,2.58,0,0,1,1.39-.39,1.81,1.81,0,0,1,1.28.44,1.94,1.94,0,0,1,.59,1.17,3.47,3.47,0,0,1,1.05-1.2,2.42,2.42,0,0,1,1.4-.41,1.93,1.93,0,0,1,.9.19,1.51,1.51,0,0,1,.6.55,2.57,2.57,0,0,1,.32.86,5.35,5.35,0,0,1,.11,1.11Z" transform="translate(-143.23 -41.71)"/><path class="cls-3" d="M385.11,353.09a3.09,3.09,0,0,1-1.26-.26,3.22,3.22,0,0,1-1.67-1.76,3.38,3.38,0,0,1-.24-1.27,3.2,3.2,0,0,1,.41-1.62,3.07,3.07,0,0,1,1.12-1.17,3,3,0,0,1,1.63-.44,3,3,0,0,1,1.63.44,3.26,3.26,0,0,1,1.5,2.78V350a.53.53,0,0,1,0,.14H382.8a2.78,2.78,0,0,0,.38,1.2,2.5,2.5,0,0,0,.84.84,2.23,2.23,0,0,0,1.13.31,2.34,2.34,0,0,0,1.17-.32,1.71,1.71,0,0,0,.77-.83l.72.2a2.31,2.31,0,0,1-.6.81,2.89,2.89,0,0,1-.94.57A3.41,3.41,0,0,1,385.11,353.09Zm-2.33-3.57h4.67a2.46,2.46,0,0,0-.37-1.2,2.32,2.32,0,0,0-3.1-.82,2.33,2.33,0,0,0-.83.82A2.53,2.53,0,0,0,382.78,349.52Z" transform="translate(-143.23 -41.71)"/><path class="cls-3" d="M394.83,353H394v-3.52a3.07,3.07,0,0,0-.33-1.62,1.14,1.14,0,0,0-1-.51,2.25,2.25,0,0,0-1,.23,2.72,2.72,0,0,0-.83.64,2.55,2.55,0,0,0-.52.92V353h-.82v-6.31h.75v1.44a2.7,2.7,0,0,1,.67-.8,3.1,3.1,0,0,1,2-.73,1.86,1.86,0,0,1,.89.19,1.46,1.46,0,0,1,.58.55,2.57,2.57,0,0,1,.32.86,6.18,6.18,0,0,1,.1,1.11Z" transform="translate(-143.23 -41.71)"/><path class="cls-3" d="M399.56,352.71l-.3.14a3.22,3.22,0,0,1-.5.17,3,3,0,0,1-.63.07,1.66,1.66,0,0,1-.66-.14,1.08,1.08,0,0,1-.49-.4,1.16,1.16,0,0,1-.19-.68v-4.55h-.87v-.66h.87v-2.14h.83v2.14h1.46v.66h-1.46v4.32a.66.66,0,0,0,.25.51.79.79,0,0,0,.52.17,1.8,1.8,0,0,0,.62-.11,2,2,0,0,0,.34-.17Z" transform="translate(-143.23 -41.71)"/><path class="cls-3" d="M403.86,353v-8.63h3.58a2.31,2.31,0,0,1,1,.23,2.77,2.77,0,0,1,.81.63,3,3,0,0,1,.53.87,2.6,2.6,0,0,1,.2,1,2.92,2.92,0,0,1-.31,1.33,2.7,2.7,0,0,1-.87,1,2.22,2.22,0,0,1-1.31.38h-2.8V353Zm.85-3.94h2.76a1.43,1.43,0,0,0,.89-.28,1.83,1.83,0,0,0,.58-.73,2.25,2.25,0,0,0,.21-1,2,2,0,0,0-.25-1,1.89,1.89,0,0,0-.63-.71,1.53,1.53,0,0,0-.87-.26h-2.69Z" transform="translate(-143.23 -41.71)"/><path class="cls-3" d="M414.41,347.37a2.55,2.55,0,0,0-1.45.46,2.29,2.29,0,0,0-.88,1.2V353h-.83v-6.31H412v1.5a2.93,2.93,0,0,1,.87-1.08,2.18,2.18,0,0,1,1.14-.47h.37Z" transform="translate(-143.23 -41.71)"/><path class="cls-3" d="M418,353.09a3.1,3.1,0,0,1-1.27-.26,3,3,0,0,1-1-.71,3.5,3.5,0,0,1-.65-1,3.51,3.51,0,0,1,0-2.5,3.23,3.23,0,0,1,.66-1,3.09,3.09,0,0,1,1-.71,3.16,3.16,0,0,1,2.51,0,3.22,3.22,0,0,1,1.65,1.75,3.51,3.51,0,0,1,0,2.5,3.31,3.31,0,0,1-.65,1,3,3,0,0,1-1,.71A3,3,0,0,1,418,353.09Zm-2.31-3.24a2.57,2.57,0,0,0,.31,1.27,2.43,2.43,0,0,0,.83.91,2.12,2.12,0,0,0,1.16.33,2,2,0,0,0,1.15-.34,2.41,2.41,0,0,0,.84-.92,2.67,2.67,0,0,0,.31-1.29,2.58,2.58,0,0,0-.31-1.26,2.49,2.49,0,0,0-.84-.92,2.12,2.12,0,0,0-1.15-.34,2.06,2.06,0,0,0-1.16.35,2.57,2.57,0,0,0-.83.93A2.61,2.61,0,0,0,415.72,349.85Z" transform="translate(-143.23 -41.71)"/><path class="cls-3" d="M425.29,353.09a3.06,3.06,0,0,1-2.28-1,3.39,3.39,0,0,1-.66-1.05,3.48,3.48,0,0,1,.16-2.89,3.07,3.07,0,0,1,1.12-1.17,3.12,3.12,0,0,1,1.65-.43,3,3,0,0,1,1.57.4,2.55,2.55,0,0,1,1,1.1l-.81.26a1.81,1.81,0,0,0-.74-.76,2.06,2.06,0,0,0-1.07-.28,2.11,2.11,0,0,0-1.15.33,2.3,2.3,0,0,0-.83.89,2.84,2.84,0,0,0,0,2.58,2.52,2.52,0,0,0,.84.93,2,2,0,0,0,1.16.34,2.17,2.17,0,0,0,.79-.15,1.94,1.94,0,0,0,.67-.39,1.25,1.25,0,0,0,.38-.54l.82.24a2.22,2.22,0,0,1-.57.81,3,3,0,0,1-.92.56A3.29,3.29,0,0,1,425.29,353.09Z" transform="translate(-143.23 -41.71)"/><path class="cls-3" d="M431.89,353.09a3,3,0,0,1-2.27-1,3.26,3.26,0,0,1-.67-1,3.58,3.58,0,0,1-.23-1.27,3.3,3.3,0,0,1,.4-1.62,3.17,3.17,0,0,1,1.13-1.17,3,3,0,0,1,1.63-.44,3,3,0,0,1,1.63.44,3.28,3.28,0,0,1,1.1,1.18,3.22,3.22,0,0,1,.4,1.6V350c0,.06,0,.11,0,.14h-5.42a2.78,2.78,0,0,0,.38,1.2,2.5,2.5,0,0,0,.84.84,2.2,2.2,0,0,0,1.12.31,2.35,2.35,0,0,0,1.18-.32,1.76,1.76,0,0,0,.77-.83l.71.2a2.28,2.28,0,0,1-.59.81,2.89,2.89,0,0,1-.94.57A3.41,3.41,0,0,1,431.89,353.09Zm-2.34-3.57h4.68a2.46,2.46,0,0,0-.37-1.2,2.32,2.32,0,0,0-3.1-.82,2.33,2.33,0,0,0-.83.82A2.65,2.65,0,0,0,429.55,349.52Z" transform="translate(-143.23 -41.71)"/><path class="cls-3" d="M438.36,353.09a4,4,0,0,1-1.44-.26,3.15,3.15,0,0,1-1.16-.77l.34-.59a3.81,3.81,0,0,0,1.08.73,2.94,2.94,0,0,0,1.15.22,2.27,2.27,0,0,0,1.2-.29,1,1,0,0,0,.46-.85.74.74,0,0,0-.23-.58,1.66,1.66,0,0,0-.64-.32c-.28-.09-.61-.18-1-.28a6.61,6.61,0,0,1-1.1-.38,1.62,1.62,0,0,1-.67-.5,1.36,1.36,0,0,1-.22-.81,1.61,1.61,0,0,1,.31-1,1.87,1.87,0,0,1,.85-.61,3.3,3.3,0,0,1,1.21-.21,3.21,3.21,0,0,1,1.28.23,2.27,2.27,0,0,1,.91.64l-.4.56a2.09,2.09,0,0,0-.8-.58,2.91,2.91,0,0,0-1-.19,2.55,2.55,0,0,0-.74.11,1.23,1.23,0,0,0-.58.33.92.92,0,0,0-.23.65.76.76,0,0,0,.17.52,1.4,1.4,0,0,0,.51.32l.84.27c.48.13.9.26,1.25.39a2.23,2.23,0,0,1,.83.52,1.24,1.24,0,0,1,.29.88,1.6,1.6,0,0,1-.67,1.37A2.87,2.87,0,0,1,438.36,353.09Z" transform="translate(-143.23 -41.71)"/><path class="cls-3" d="M444.23,353.09a4.06,4.06,0,0,1-1.45-.26,3.11,3.11,0,0,1-1.15-.77l.34-.59a3.78,3.78,0,0,0,1.07.73,3,3,0,0,0,1.15.22,2.22,2.22,0,0,0,1.2-.29,1,1,0,0,0,.47-.85.74.74,0,0,0-.23-.58,1.66,1.66,0,0,0-.64-.32c-.28-.09-.62-.18-1-.28a6.61,6.61,0,0,1-1.1-.38,1.62,1.62,0,0,1-.67-.5,1.36,1.36,0,0,1-.23-.81,1.67,1.67,0,0,1,.31-1,1.92,1.92,0,0,1,.85-.61,3.34,3.34,0,0,1,1.21-.21,3.23,3.23,0,0,1,1.29.23,2.34,2.34,0,0,1,.91.64l-.4.56a2.2,2.2,0,0,0-.81-.58,2.87,2.87,0,0,0-1-.19,2.6,2.6,0,0,0-.74.11,1.25,1.25,0,0,0-.57.33.92.92,0,0,0-.23.65.76.76,0,0,0,.17.52,1.24,1.24,0,0,0,.51.32l.84.27c.48.13.89.26,1.25.39a2.23,2.23,0,0,1,.83.52,1.24,1.24,0,0,1,.29.88,1.63,1.63,0,0,1-.67,1.37A2.89,2.89,0,0,1,444.23,353.09Z" transform="translate(-143.23 -41.71)"/><path class="cls-3" d="M458.93,353v-7l-3.13,5.45h-.53L452.14,346v7h-.85v-8.63h.87l3.37,5.91,3.39-5.91h.86V353Z" transform="translate(-143.23 -41.71)"/><path class="cls-3" d="M461.2,351.16a1.55,1.55,0,0,1,.34-1,2.15,2.15,0,0,1,.94-.67,3.93,3.93,0,0,1,1.39-.23,6.39,6.39,0,0,1,1,.07,4.29,4.29,0,0,1,.89.22V349a1.68,1.68,0,0,0-.48-1.27,1.78,1.78,0,0,0-1.31-.47,2.69,2.69,0,0,0-1,.19,5,5,0,0,0-1,.55l-.31-.58a4.9,4.9,0,0,1,1.21-.64,3.64,3.64,0,0,1,1.22-.21,2.53,2.53,0,0,1,1.84.66,2.41,2.41,0,0,1,.68,1.83V352a.34.34,0,0,0,.08.25.33.33,0,0,0,.23.09V353l-.23,0h-.15a.61.61,0,0,1-.46-.19.65.65,0,0,1-.17-.39V352a2.92,2.92,0,0,1-1.11.84,3.37,3.37,0,0,1-1.38.3,2.32,2.32,0,0,1-1.1-.26,1.94,1.94,0,0,1-.77-.7A1.84,1.84,0,0,1,461.2,351.16Zm4.24.48a1.46,1.46,0,0,0,.2-.33.63.63,0,0,0,.08-.27v-.92a6.06,6.06,0,0,0-.86-.24,4.47,4.47,0,0,0-.89-.08,2.6,2.6,0,0,0-1.44.35,1.08,1.08,0,0,0-.54,1,1.25,1.25,0,0,0,.18.65,1.37,1.37,0,0,0,.53.51,1.7,1.7,0,0,0,.83.2,2.72,2.72,0,0,0,1.11-.23A2,2,0,0,0,465.44,351.64Z" transform="translate(-143.23 -41.71)"/><path class="cls-3" d="M473.65,353h-.83v-3.52a3.07,3.07,0,0,0-.33-1.62,1.12,1.12,0,0,0-1-.51,2.25,2.25,0,0,0-1,.23,2.84,2.84,0,0,0-.83.64,2.55,2.55,0,0,0-.52.92V353h-.82v-6.31h.75v1.44a2.7,2.7,0,0,1,.67-.8,3.19,3.19,0,0,1,.93-.54,3.09,3.09,0,0,1,1.09-.19,1.84,1.84,0,0,1,.88.19,1.49,1.49,0,0,1,.59.55,2.56,2.56,0,0,1,.31.86,5.39,5.39,0,0,1,.1,1.11Z" transform="translate(-143.23 -41.71)"/><path class="cls-3" d="M474.9,351.16a1.55,1.55,0,0,1,.34-1,2.21,2.21,0,0,1,.94-.67,4,4,0,0,1,1.39-.23,6.39,6.39,0,0,1,1,.07,4.29,4.29,0,0,1,.89.22V349a1.71,1.71,0,0,0-.47-1.27,1.82,1.82,0,0,0-1.32-.47,2.69,2.69,0,0,0-1,.19,5,5,0,0,0-1,.55l-.31-.58a5.08,5.08,0,0,1,1.21-.64,3.64,3.64,0,0,1,1.22-.21,2.51,2.51,0,0,1,1.84.66,2.41,2.41,0,0,1,.69,1.83V352a.34.34,0,0,0,.07.25.35.35,0,0,0,.23.09V353l-.23,0h-.15a.63.63,0,0,1-.46-.19.65.65,0,0,1-.17-.39V352a2.85,2.85,0,0,1-1.11.84,3.37,3.37,0,0,1-1.38.3,2.35,2.35,0,0,1-1.1-.26,2,2,0,0,1-.77-.7A1.84,1.84,0,0,1,474.9,351.16Zm4.24.48a1.52,1.52,0,0,0,.21-.33.77.77,0,0,0,.07-.27v-.92a6.06,6.06,0,0,0-.86-.24,4.4,4.4,0,0,0-.89-.08,2.55,2.55,0,0,0-1.43.35,1.07,1.07,0,0,0-.55,1,1.25,1.25,0,0,0,.18.65,1.33,1.33,0,0,0,.54.51,1.66,1.66,0,0,0,.82.2,2.72,2.72,0,0,0,1.11-.23A2,2,0,0,0,479.14,351.64Z" transform="translate(-143.23 -41.71)"/><path class="cls-3" d="M484.57,353.09a2.63,2.63,0,0,1-1.19-.27,2.91,2.91,0,0,1-.94-.72,3.42,3.42,0,0,1-.62-1,3.53,3.53,0,0,1-.21-1.2,3.7,3.7,0,0,1,.21-1.26,3.42,3.42,0,0,1,.6-1.05,2.92,2.92,0,0,1,.93-.72,2.63,2.63,0,0,1,1.19-.26,2.47,2.47,0,0,1,1.42.4,3.63,3.63,0,0,1,1,1v-1.33h.74V353a2.5,2.5,0,0,1-.41,1.47,2.58,2.58,0,0,1-1.13.9,4,4,0,0,1-1.55.31,3.44,3.44,0,0,1-1.75-.39,3.13,3.13,0,0,1-1.09-1.05l.51-.4a2.33,2.33,0,0,0,1,.89,3.15,3.15,0,0,0,1.33.29,2.78,2.78,0,0,0,1.13-.22,1.94,1.94,0,0,0,.83-.66,1.89,1.89,0,0,0,.31-1.11v-1.25a2.77,2.77,0,0,1-1,1A2.62,2.62,0,0,1,484.57,353.09Zm.23-.69a2,2,0,0,0,.72-.14,2.51,2.51,0,0,0,.64-.36,2.32,2.32,0,0,0,.49-.5,1.4,1.4,0,0,0,.24-.57v-2a2.72,2.72,0,0,0-.52-.82,2.76,2.76,0,0,0-.77-.56,2.18,2.18,0,0,0-.9-.2,2,2,0,0,0-.95.23,2.26,2.26,0,0,0-.71.59,3.05,3.05,0,0,0-.44.84,2.92,2.92,0,0,0-.16.92,2.38,2.38,0,0,0,.19,1,2.74,2.74,0,0,0,.5.82,2.15,2.15,0,0,0,.75.55A2.24,2.24,0,0,0,484.8,352.4Z" transform="translate(-143.23 -41.71)"/><path class="cls-3" d="M492.27,353.09a3.12,3.12,0,0,1-1.26-.26,3.22,3.22,0,0,1-1.67-1.76,3.38,3.38,0,0,1-.24-1.27,3.3,3.3,0,0,1,.41-1.62,3.07,3.07,0,0,1,1.12-1.17,3,3,0,0,1,1.63-.44,2.93,2.93,0,0,1,1.63.44,3.26,3.26,0,0,1,1.5,2.78V350a.53.53,0,0,1,0,.14H490a2.78,2.78,0,0,0,.38,1.2,2.5,2.5,0,0,0,.84.84,2.23,2.23,0,0,0,1.13.31,2.34,2.34,0,0,0,1.17-.32,1.71,1.71,0,0,0,.77-.83l.72.2a2.31,2.31,0,0,1-.6.81,2.89,2.89,0,0,1-.94.57A3.41,3.41,0,0,1,492.27,353.09Zm-2.33-3.57h4.67a2.46,2.46,0,0,0-.37-1.2,2.33,2.33,0,0,0-.83-.82,2.36,2.36,0,0,0-1.14-.29,2.29,2.29,0,0,0-1.13.29,2.33,2.33,0,0,0-.83.82A2.53,2.53,0,0,0,489.94,349.52Z" transform="translate(-143.23 -41.71)"/><path class="cls-3" d="M499.83,347.37a2.55,2.55,0,0,0-1.45.46,2.3,2.3,0,0,0-.89,1.2V353h-.82v-6.31h.78v1.5a2.81,2.81,0,0,1,.86-1.08,2.21,2.21,0,0,1,1.15-.47h.37Z" transform="translate(-143.23 -41.71)"/></svg>