<?xml version="1.0" encoding="utf-8"?>
<!-- Generator: Adobe Illustrator 23.0.1, SVG Export Plug-In . SVG Version: 6.00 Build 0)  -->
<svg version="1.1" id="Warstwa_1" xmlns="http://www.w3.org/2000/svg" xmlns:xlink="http://www.w3.org/1999/xlink" x="0px" y="0px"
	 viewBox="0 0 841.9 595.3" style="enable-background:new 0 0 841.9 595.3;" xml:space="preserve">
<style type="text/css">
	.st0{fill:#212826;}
	.st1{fill:#754C29;}
	.st2{fill:#FFFFFF;}
</style>
<rect x="143.2" y="41.7" class="st0" width="536.5" height="536.5"/>
<g>
	<g>
		<path class="st1" d="M407.1,327c-1.9-0.1-3.5-1.5-3.5-3.6c0-2,1.6-3.5,3.5-3.5c2.1,0,3.5,1.6,3.5,3.5
			C410.6,325.5,409.1,326.9,407.1,327z"/>
		<path class="st1" d="M398.3,324.5c-1.9-0.1-3.4-1.5-3.3-3.4c0-1.9,1.4-3.3,3.4-3.3c1.9,0,3.4,1.4,3.4,3.4
			C401.6,323,400.2,324.4,398.3,324.5z"/>
		<path class="st1" d="M406,314.7c-0.1-1.8,1.5-3.3,3.3-3.3c1.8,0,3.3,1.4,3.3,3.3c0,1.9-1.4,3.3-3.3,3.3
			C407.4,318,406,316.5,406,314.7z"/>
		<path class="st1" d="M415.7,329.1c-1.7,0.1-3.2-1.5-3.2-3.2c0-1.7,1.5-3.2,3.2-3.2c1.7,0,3.2,1.5,3.2,3.3
			C418.9,327.6,417.4,329.2,415.7,329.1z"/>
		<path class="st1" d="M403.9,312.3c0.1,1.7-1.5,3.2-3.2,3.2c-1.7,0-3.2-1.5-3.2-3.2c0-1.7,1.5-3.2,3.2-3.2
			C402.4,309.1,404,310.6,403.9,312.3z"/>
		<path class="st1" d="M418.1,320.3c-1.8,0-3.2-1.4-3.2-3.2c0-1.8,1.4-3.2,3.2-3.2c1.8,0,3.2,1.4,3.2,3.2
			C421.2,318.8,419.8,320.3,418.1,320.3z"/>
		<path class="st1" d="M414.7,305.9c0.1,1.6-1.4,3-3,3c-1.6,0-3-1.4-3-3.1c0-1.6,1.4-3,3.1-3C413.3,302.8,414.8,304.3,414.7,305.9z"
			/>
		<path class="st1" d="M389.5,321.7c-1.6,0.1-3-1.4-3-3c0-1.6,1.4-3,3-3c1.6,0,3,1.4,3,3C392.5,320.3,391.1,321.8,389.5,321.7z"/>
		<path class="st1" d="M402.8,306.7c-1.6,0-3-1.4-3-3c0-1.6,1.4-3,3-2.9c1.6,0,2.9,1.4,2.9,3C405.9,305.3,404.5,306.7,402.8,306.7z"
			/>
		<path class="st1" d="M394.9,310.1c0,1.6-1.4,3-3,2.9c-1.6,0-2.9-1.4-2.9-3c0-1.6,1.3-3,3-3C393.6,307.1,394.9,308.5,394.9,310.1z"
			/>
		<path class="st1" d="M420.5,311.3c-1.7,0-3-1.3-3-3c0-1.7,1.3-3,3-3c1.6,0,2.9,1.3,2.9,3C423.4,309.9,422.1,311.2,420.5,311.3z"/>
		<path class="st1" d="M398.8,329.9c-0.1,1.7-1.2,2.9-2.9,2.9c-1.5,0-2.9-1.1-2.9-2.9c0-1.6,1.2-2.9,2.9-2.9
			C397.6,327,398.7,328.2,398.8,329.9z"/>
		<path class="st1" d="M404.7,329.4c1.8,0.1,2.9,1.3,2.9,2.9c0,1.7-1.2,2.9-2.9,2.9c-1.6,0-2.9-1.2-2.9-2.9
			C401.8,330.6,403.1,329.4,404.7,329.4z"/>
		<path class="st1" d="M394.3,304.1c-1.5,0.1-2.8-1.4-2.8-2.8c0-1.5,1.4-2.8,2.8-2.9c1.4,0,2.8,1.3,2.8,2.9
			C397.1,302.8,395.8,304.2,394.3,304.1z"/>
		<path class="st1" d="M416.9,297.3c0,1.5-1.2,2.8-2.8,2.8c-1.6,0-2.8-1.2-2.8-2.8c0-1.6,1.2-2.7,2.8-2.7
			C415.6,294.5,416.8,295.7,416.9,297.3z"/>
		<path class="st1" d="M408,294.9c-0.1,1.6-1.1,2.7-2.7,2.7c-1.6,0-2.7-1.1-2.7-2.7c0-1.6,1-2.7,2.7-2.7
			C406.9,292.2,407.9,293.3,408,294.9z"/>
		<path class="st1" d="M429.6,319.5c-0.1,1.6-1.1,2.7-2.7,2.7c-1.6,0-2.7-1.1-2.7-2.7c0-1.6,1.1-2.7,2.7-2.7
			C428.5,316.7,429.5,317.9,429.6,319.5z"/>
		<path class="st1" d="M422.7,302.2c-1.5-0.1-2.7-1-2.7-2.7c0-1.5,1.2-2.7,2.7-2.7c1.7,0,2.7,1.2,2.7,2.7
			C425.4,301.1,424.3,302.1,422.7,302.2z"/>
		<path class="st1" d="M426.4,310.6c-0.1-1.4,1.2-2.6,2.7-2.6c1.5,0,2.7,1.2,2.6,2.7c0,1.6-1.2,2.6-2.7,2.6
			C427.5,313.4,426.3,312.1,426.4,310.6z"/>
		<path class="st1" d="M383.1,310.3c-1.4,0.1-2.6-1.3-2.6-2.6c0-1.3,1.3-2.6,2.7-2.6c1.3,0,2.6,1.2,2.6,2.6
			C385.7,309.1,384.5,310.4,383.1,310.3z"/>
		<path class="st1" d="M396.5,295.1c-1.4,0-2.6-1.2-2.6-2.6c0-1.5,1.1-2.6,2.6-2.6c1.4,0,2.6,1.2,2.5,2.6
			C399.1,293.9,397.9,295.1,396.5,295.1z"/>
		<path class="st1" d="M383.3,316.5c-0.1,1.4-1.1,2.6-2.5,2.6c-1.5,0-2.6-1.1-2.6-2.6c0-1.5,1.1-2.5,2.6-2.5
			C382.1,313.9,383.2,315,383.3,316.5z"/>
		<path class="st1" d="M388.1,298.9c-0.1,1.5-1.1,2.6-2.6,2.5c-1.5,0-2.6-1.1-2.5-2.6c0-1.5,1.1-2.5,2.5-2.5
			C386.9,296.3,387.9,297.4,388.1,298.9z"/>
		<path class="st1" d="M384.6,327.4c0-1.3,1.1-2.4,2.5-2.4c1.4,0,2.5,1.1,2.4,2.5c0,1.5-1.1,2.4-2.5,2.4
			C385.6,330,384.6,328.8,384.6,327.4z"/>
		<path class="st1" d="M429,301.9c-0.1-1.3,1.1-2.5,2.5-2.5c1.2,0,2.4,1,2.4,2.4c0,1.4-1.1,2.5-2.5,2.5
			C430,304.3,428.9,303.1,429,301.9z"/>
		<path class="st1" d="M413.8,288.5c-0.1-1.3,1.1-2.5,2.5-2.5c1.2,0,2.4,1,2.4,2.5c0,1.4-1.1,2.5-2.5,2.5
			C414.9,291,413.7,289.8,413.8,288.5z"/>
		<path class="st1" d="M410.1,286.1c0.1,1.2-1.1,2.4-2.4,2.4c-1.3,0-2.4-1.1-2.4-2.5c0-1.2,1.1-2.4,2.5-2.4
			C408.9,283.7,410.2,284.8,410.1,286.1z"/>
		<path class="st1" d="M427.5,290.9c0,1.3-1.1,2.4-2.4,2.4c-1.3,0-2.4-1.1-2.4-2.4c0-1.3,1.1-2.4,2.4-2.4
			C426.3,288.5,427.5,289.6,427.5,290.9z"/>
		<path class="st1" d="M387.9,292.7c-1.4-0.1-2.4-1-2.4-2.4c0-1.4,0.9-2.3,2.3-2.4c1.3,0,2.3,0.9,2.4,2.3
			C390.3,291.6,389.2,292.6,387.9,292.7z"/>
		<path class="st1" d="M396.6,283.9c0-1.3,1-2.3,2.3-2.3c1.5,0,2.3,1.1,2.3,2.3c0,1.4-0.9,2.3-2.3,2.3
			C397.6,286.2,396.6,285.4,396.6,283.9z"/>
		<path class="st1" d="M426.7,328.1c0,1.2-1,2.2-2.2,2.2c-1.2,0-2.2-1-2.2-2.2c0-1.2,1-2.2,2.2-2.2
			C425.6,325.9,426.7,326.9,426.7,328.1z"/>
		<path class="st1" d="M436.1,293.1c0,1.2-1,2.2-2.2,2.2c-1.2,0-2.2-1-2.2-2.2c0-1.2,1-2.2,2.2-2.2
			C435.1,290.9,436.1,291.9,436.1,293.1z"/>
		<path class="st1" d="M376.5,305.3c0,1.2-1,2.2-2.2,2.1c-1.3,0-2.2-1-2.1-2.2c0-1.3,0.9-2.2,2.2-2.1
			C375.5,303.1,376.4,304.1,376.5,305.3z"/>
		<path class="st1" d="M415.6,334.5c-0.1,1.3-0.9,2.1-2.1,2.1c-1.4,0-2.2-0.9-2.2-2.2c0-1.3,0.9-2.1,2.2-2.1
			C414.7,332.3,415.5,333.1,415.6,334.5z"/>
		<path class="st1" d="M378.9,296.7c-0.1,1.2-0.9,2.1-2.1,2.1c-1.4,0-2.2-0.9-2.2-2.2c0-1.3,0.9-2.1,2.2-2.1
			C377.9,294.6,378.7,295.4,378.9,296.7z"/>
		<path class="st1" d="M420.8,279.7c-0.1,1.3-0.9,2.1-2.1,2.1c-1.2,0-2.1-0.9-2.1-2.1c0-1.3,0.9-2.1,2.1-2.1
			C420,277.6,420.7,278.6,420.8,279.7z"/>
		<path class="st1" d="M407.8,277.4c0-1.1,0.9-2,2.1-2c1.1,0,2.1,1,2,2.1c0,1.3-1,2.1-2.1,2C408.6,279.6,407.7,278.6,407.8,277.4z"
			/>
		<path class="st1" d="M388.1,281.5c-0.1-1.1,0.9-2.1,2.1-2.1c1,0,2,0.9,2,2c0,1.1-0.9,2.1-2,2.1C388.9,283.6,388,282.6,388.1,281.5
			z"/>
		<path class="st1" d="M437.8,315.1c-1.1,0.1-2-1-2-2c0-1,1-2,2.1-2c1,0,2,0.9,2,2.1C439.9,314.1,439,315.2,437.8,315.1z"/>
		<path class="st1" d="M429.5,282.1c0.1,1.1-0.9,2-2,2c-1.1,0-2-1-2-2c0-1.1,1-2,2-2.1C428.5,280.1,429.6,281,429.5,282.1z"/>
		<path class="st1" d="M442.3,304.3c0,1-0.9,2-2,2c-1.1,0-2-1-2-2c0-1,1-2,2-2C441.3,302.3,442.3,303.3,442.3,304.3z"/>
		<path class="st1" d="M379.1,289.9c-1,0-2-0.9-2-2c0-1,1-2,2-2c1.1,0,2,1,2,2C381.1,289,380.1,289.9,379.1,289.9z"/>
		<path class="st1" d="M374.1,314.1c-0.1,1.1-0.8,2-2,2c-1.2,0-2-0.8-2-1.9c0-1.1,0.7-1.9,1.9-2C373.2,312.1,374,312.9,374.1,314.1z
			"/>
		<path class="st1" d="M403.2,275.1c-0.1,1.1-0.9,2-2,1.9c-1.2,0-2-0.9-1.9-2c0-1.2,0.8-1.9,2-1.9
			C402.4,273.2,403.2,273.9,403.2,275.1z"/>
		<path class="st1" d="M376.6,325.1c-0.1-1.1,0.8-1.9,1.9-1.9c1.1,0,1.9,0.8,1.9,1.9c0,1.1-0.7,1.8-1.8,1.9
			C377.4,327,376.6,326.2,376.6,325.1z"/>
		<path class="st1" d="M436.3,286.3c-1,0.1-1.8-1-1.9-1.8c0-0.9,1-1.8,1.8-1.9c0.9,0,1.8,0.9,1.8,1.8
			C438.1,285.5,437.2,286.4,436.3,286.3z"/>
		<path class="st1" d="M444.4,295.5c0,0.9-0.9,1.8-1.8,1.8c-0.9,0-1.8-0.8-1.8-1.8c0-1,0.8-1.8,1.8-1.8
			C443.6,293.7,444.5,294.6,444.4,295.5z"/>
		<path class="st1" d="M383.3,279.1c-0.1,1-0.7,1.8-1.8,1.8c-1.1,0-1.7-0.8-1.8-1.8c-0.1-0.9,0.8-1.7,1.7-1.8
			C382.4,277.3,383.3,278.2,383.3,279.1z"/>
		<path class="st1" d="M435.5,320c1.1,0.1,1.7,0.7,1.7,1.7c0.1,0.9-0.8,1.8-1.7,1.7c-1-0.1-1.7-0.6-1.7-1.7
			C433.8,320.6,434.5,320,435.5,320z"/>
		<path class="st1" d="M394.2,272.7c0,0.9-0.9,1.8-1.8,1.7c-1-0.1-1.7-0.7-1.7-1.7c0-1,0.7-1.7,1.7-1.7
			C393.6,271,394.1,271.7,394.2,272.7z"/>
		<path class="st1" d="M419.4,271.1c-0.1-0.9,0.8-1.7,1.7-1.7c0.9,0,1.7,0.7,1.7,1.7c0,1-0.7,1.7-1.7,1.7
			C420.1,272.8,419.4,272,419.4,271.1z"/>
		<path class="st1" d="M413.9,268.7c0.1,0.8-0.8,1.6-1.6,1.6c-0.9,0-1.7-0.8-1.7-1.7c0-0.8,0.8-1.7,1.7-1.6
			C413.3,267.1,413.9,267.8,413.9,268.7z"/>
		<path class="st1" d="M369.5,294.3c0.1,0.8-0.8,1.6-1.6,1.6c-0.8,0-1.6-0.8-1.6-1.6c0-0.8,0.8-1.6,1.6-1.6
			C368.7,292.7,369.5,293.4,369.5,294.3z"/>
		<path class="st1" d="M431.5,273.3c0.1,0.8-0.8,1.6-1.6,1.6c-0.8,0-1.6-0.8-1.6-1.6c0-0.8,0.8-1.6,1.6-1.6
			C430.7,271.7,431.5,272.5,431.5,273.3z"/>
		<path class="st1" d="M403.5,267.9c-0.9-0.1-1.5-0.7-1.5-1.6c0-0.9,0.6-1.5,1.5-1.5c0.9,0,1.5,0.6,1.5,1.5
			C405,267.2,404.4,267.8,403.5,267.9z"/>
		<path class="st1" d="M365.7,301.5c0.9,0.1,1.5,0.6,1.5,1.6c0,0.9-0.6,1.5-1.5,1.5c-0.9,0-1.6-0.6-1.6-1.5
			C364.2,302.2,364.7,301.7,365.7,301.5z"/>
		<path class="st1" d="M370.3,284c0.9,0,1.5,0.6,1.5,1.5c0,0.9-0.6,1.5-1.5,1.5c-0.9,0-1.5-0.6-1.5-1.5
			C368.8,284.7,369.5,284,370.3,284z"/>
		<path class="st1" d="M446.3,286.7c0.1,0.8-0.7,1.5-1.4,1.4c-0.8,0-1.4-0.6-1.5-1.4c0-0.7,0.7-1.4,1.4-1.4
			C445.5,285.3,446.4,286,446.3,286.7z"/>
		<path class="st1" d="M439.9,275.7c0.1,0.6-0.7,1.4-1.4,1.4c-0.7,0-1.4-0.7-1.4-1.4c0-0.7,0.7-1.4,1.4-1.4
			C439.1,274.3,439.9,275,439.9,275.7z"/>
		<path class="st1" d="M385.1,270.3c0,0.7-0.6,1.4-1.4,1.4c-0.8,0-1.4-0.6-1.4-1.3c0-0.8,0.6-1.4,1.4-1.4
			C384.5,269,385,269.5,385.1,270.3z"/>
		<path class="st1" d="M393.6,263.9c-0.1-0.7,0.6-1.3,1.2-1.3c0.7,0,1.3,0.5,1.3,1.3c0,0.7-0.5,1.2-1.3,1.2
			C394.1,265.2,393.6,264.6,393.6,263.9z"/>
		<path class="st1" d="M373.9,276.7c0,0.7-0.5,1.1-1.2,1.2c-0.6,0-1.3-0.7-1.2-1.2c0-0.7,0.5-1.2,1.3-1.2
			C373.4,275.5,373.9,276,373.9,276.7z"/>
		<path class="st1" d="M369.7,321.8c0.7,0,1,0.5,1.1,1.1c0.1,0.5-0.5,1.1-1.1,1.1c-0.6,0-1.1-0.5-1.1-1.1
			C368.6,322.3,369,321.8,369.7,321.8z"/>
		<path class="st1" d="M362.2,311.7c0-0.6,0.4-1.1,1.1-1.1c0.7,0,1,0.5,1.1,1.1c0.1,0.5-0.5,1.1-1.1,1.1
			C362.8,312.8,362.2,312.3,362.2,311.7z"/>
		<path class="st1" d="M423.5,261.2c0.7,0,1.1,0.5,1.1,1.1c0.1,0.5-0.5,1.1-1.1,1.1c-0.6,0-1.1-0.5-1.1-1.1
			C422.4,261.7,422.8,261.2,423.5,261.2z"/>
		<path class="st1" d="M450.1,306.7c0.1,0.6-0.4,1-1,1c-0.6,0-1-0.5-1-1c0-0.6,0.5-1.1,1.1-1C449.7,305.7,450.1,306.1,450.1,306.7z"
			/>
		<path class="st1" d="M415.7,259.9c0.1,0.6-0.4,1.1-1,1c-0.6,0-1-0.4-1.1-1c0-0.6,0.5-1.1,1-1.1
			C415.2,258.9,415.8,259.3,415.7,259.9z"/>
		<path class="st1" d="M452.2,297.9c0,0.6-0.4,1-1,1c-0.5,0-1-0.5-1-1c0-0.5,0.5-1,1-1C451.8,296.9,452.3,297.3,452.2,297.9z"/>
		<path class="st1" d="M394.5,338.6c0,0.6-0.4,1-1,1c-0.6,0-1-0.4-1-1c0-0.6,0.4-1,1-1C394,337.6,394.5,338.2,394.5,338.6z"/>
		<path class="st1" d="M433.1,264.7c0.1,0.5-0.5,1-1,1c-0.5,0-1-0.6-1-1c0-0.5,0.5-1,1-1C432.6,263.7,433.1,264.2,433.1,264.7z"/>
		<path class="st1" d="M445.8,315.3c0-0.6,0.3-0.9,0.8-0.9c0.7,0,0.9,0.3,0.9,0.9c0,0.5-0.4,0.9-0.9,0.9
			C446.2,316.1,445.8,316,445.8,315.3z"/>
		<path class="st1" d="M447.3,277.2c0.6,0,0.8,0.4,0.9,0.9c0,0.5-0.4,0.9-0.9,0.9c-0.6-0.1-0.8-0.3-0.8-0.9
			C446.4,277.5,446.7,277.2,447.3,277.2z"/>
		<path class="st1" d="M405,257.5c0-0.5,0.3-0.9,0.9-0.9c0.6,0,0.8,0.3,0.9,0.9c0,0.5-0.4,0.9-0.9,0.9
			C405.3,258.3,405,258.1,405,257.5z"/>
		<path class="st1" d="M384,336.3c0-0.5,0.3-0.9,0.9-0.8c0.6,0,0.8,0.4,0.9,0.9c0,0.5-0.4,0.9-0.9,0.9
			C384.3,337.1,384,336.8,384,336.3z"/>
		<path class="st1" d="M375.9,268.1c0,0.5-0.3,0.8-0.8,0.8c-0.5,0-0.9-0.3-0.9-0.8c0-0.5,0.3-0.8,0.8-0.8
			C375.6,267.3,375.9,267.6,375.9,268.1z"/>
		<path class="st1" d="M386.1,260.9c0.5,0,0.8,0.3,0.8,0.8c0,0.5-0.3,0.8-0.8,0.8c-0.5,0-0.8-0.3-0.8-0.8
			C385.3,261.3,385.6,260.9,386.1,260.9z"/>
		<path class="st1" d="M433.3,329.7c0.5,0,0.8,0.4,0.8,0.9c0,0.5-0.3,0.7-0.8,0.8c-0.4,0-0.8-0.4-0.8-0.8
			C432.5,330,432.8,329.7,433.3,329.7z"/>
		<path class="st1" d="M422.9,336.9c0.1,0.4-0.4,0.8-0.8,0.8c-0.5,0-0.8-0.3-0.8-0.8c0-0.5,0.4-0.8,0.8-0.8
			C422.6,336.1,422.9,336.4,422.9,336.9z"/>
		<path class="st1" d="M359.3,291.1c0.4,0,0.8,0.4,0.8,0.8c0,0.4-0.4,0.8-0.8,0.8c-0.4,0-0.8-0.4-0.8-0.8
			C358.5,291.5,358.9,291.1,359.3,291.1z"/>
		<path class="st1" d="M440.2,266.9c0-0.4,0.3-0.7,0.7-0.7c0.4,0,0.7,0.3,0.7,0.7c0,0.3-0.4,0.7-0.7,0.7
			C440.5,267.6,440.2,267.3,440.2,266.9z"/>
		<path class="st1" d="M453,289.1c0-0.4,0.3-0.7,0.7-0.7c0.4,0,0.7,0.3,0.7,0.7c0,0.3-0.4,0.7-0.8,0.7
			C453.3,289.8,453,289.5,453,289.1z"/>
		<path class="st1" d="M361.5,282.4c0.4,0,0.7,0.3,0.7,0.7c0,0.3-0.4,0.7-0.7,0.8c-0.4,0-0.7-0.3-0.7-0.7
			C360.8,282.7,361.1,282.4,361.5,282.4z"/>
		<path class="st1" d="M397.1,255.9c-0.4,0-0.6-0.2-0.6-0.6c0-0.4,0.2-0.6,0.6-0.6c0.4,0,0.6,0.2,0.6,0.6
			C397.7,255.7,397.5,255.9,397.1,255.9z"/>
		<path class="st1" d="M357.5,300.7c0,0.4-0.2,0.6-0.6,0.6c-0.4,0-0.6-0.2-0.6-0.6c0-0.4,0.2-0.6,0.6-0.6
			C357.3,300.1,357.5,300.3,357.5,300.7z"/>
		<path class="st1" d="M402.9,340.9c0,0.4-0.2,0.6-0.6,0.6c-0.4,0-0.6-0.2-0.6-0.6c0-0.4,0.2-0.6,0.6-0.6
			C402.7,340.3,402.9,340.5,402.9,340.9z"/>
		<path class="st1" d="M376.1,333.3c0.2,0,0.6,0.4,0.5,0.6c0,0.2-0.4,0.5-0.6,0.5c-0.2,0-0.5-0.3-0.5-0.6
			C375.5,333.6,375.9,333.3,376.1,333.3z"/>
		<path class="st1" d="M364.5,274.5c0,0.2-0.3,0.6-0.5,0.6c-0.2,0-0.6-0.3-0.6-0.6c0-0.2,0.4-0.6,0.6-0.6
			C364.2,274,364.5,274.3,364.5,274.5z"/>
		<path class="st1" d="M426.1,253.5c0,0.3-0.1,0.4-0.4,0.4c-0.3,0-0.4-0.1-0.4-0.4c0-0.3,0.1-0.4,0.4-0.4
			C426,253.1,426.1,253.2,426.1,253.5z"/>
		<path class="st1" d="M360.9,320.1c0.3,0,0.4,0.1,0.4,0.4c0,0.3-0.1,0.4-0.4,0.4c-0.3,0-0.4-0.1-0.4-0.4
			C360.5,320.2,360.6,320.1,360.9,320.1z"/>
		<path class="st1" d="M444.7,324.1c0,0.3-0.1,0.4-0.4,0.4c-0.3,0-0.4-0.1-0.4-0.4c0-0.3,0.1-0.4,0.4-0.4
			C444.5,323.7,444.7,323.8,444.7,324.1z"/>
		<path class="st1" d="M388.5,253.3c-0.1-0.2-0.2-0.3-0.2-0.4c0-0.2,0.1-0.2,0.3-0.2c0.2,0,0.3,0.1,0.2,0.3
			C388.7,253.1,388.6,253.1,388.5,253.3z"/>
		<path class="st1" d="M417,250.9c0.3,0,0.4,0.1,0.3,0.3c0,0.1-0.2,0.2-0.3,0.2c-0.2,0-0.3-0.1-0.2-0.3
			C416.9,251,417,250.9,417,250.9z"/>
		<path class="st1" d="M354.5,309.9c-0.1-0.2-0.3-0.3-0.3-0.4c0-0.1,0.1-0.3,0.2-0.2c0.1,0,0.3,0.1,0.3,0.2
			C354.8,309.6,354.7,309.7,354.5,309.9z"/>
		<path class="st1" d="M450,269.3c-0.2,0.1-0.3,0.3-0.4,0.3c-0.2,0-0.3-0.1-0.3-0.3c0-0.2,0.1-0.3,0.2-0.3
			C449.7,269.1,449.9,269.2,450,269.3z"/>
		<path class="st1" d="M457.6,308.5c0.1,0.2,0.3,0.3,0.3,0.4c0,0.1-0.1,0.2-0.2,0.3c-0.2,0-0.3-0.1-0.3-0.3
			C457.4,308.8,457.5,308.7,457.6,308.5z"/>
		<path class="st1" d="M377.7,259.3c-0.2,0.1-0.2,0.3-0.3,0.3c-0.2,0-0.3-0.1-0.3-0.2c0-0.2,0.1-0.3,0.2-0.3
			C377.4,259.1,377.5,259.2,377.7,259.3z"/>
		<path class="st1" d="M408.2,248.5c0.1,0.2,0.3,0.3,0.3,0.4c0,0.1-0.1,0.2-0.2,0.3c-0.2,0-0.3-0.1-0.3-0.3
			C408,248.8,408.1,248.7,408.2,248.5z"/>
		<path class="st1" d="M443.2,258.1c0.3,0,0.4,0.1,0.4,0.3c0,0.1-0.1,0.2-0.2,0.2c-0.2,0-0.3-0.1-0.3-0.3
			C443,258.2,443.1,258.1,443.2,258.1z"/>
		<path class="st1" d="M367.7,331.5c-0.2,0.1-0.3,0.2-0.4,0.2c-0.1,0-0.2-0.2-0.2-0.3c0-0.2,0.1-0.3,0.2-0.2
			C367.4,331.3,367.5,331.4,367.7,331.5z"/>
		<path class="st1" d="M456,280.7c-0.1-0.2-0.2-0.3-0.2-0.4c0-0.2,0.1-0.2,0.3-0.2c0.2,0,0.3,0.1,0.2,0.3
			C456.3,280.4,456.2,280.5,456,280.7z"/>
		<path class="st1" d="M434.4,256.3c-0.1-0.2-0.2-0.3-0.2-0.4c0-0.2,0.1-0.2,0.3-0.2c0.2,0,0.3,0.1,0.2,0.3
			C434.7,256.1,434.6,256.1,434.4,256.3z"/>
		<path class="st1" d="M366.2,265.4c0.3,0,0.4,0.1,0.3,0.3c0,0.1-0.2,0.2-0.3,0.2c-0.2,0-0.3-0.1-0.2-0.3
			C366.1,265.6,366.2,265.5,366.2,265.4z"/>
	</g>
</g>
<g>
	<g>
		<path class="st2" d="M324.4,332.1V272h21.8c6.5,0,12,1.3,16.4,4c4.4,2.7,7.7,6.3,9.9,10.8c2.2,4.5,3.3,9.6,3.3,15.1
			c0,6.1-1.2,11.4-3.6,15.9c-2.4,4.5-5.9,8-10.3,10.5c-4.4,2.5-9.7,3.7-15.7,3.7H324.4z M364.1,302c0-3.9-0.7-7.3-2.1-10.3
			c-1.4-3-3.4-5.3-6.1-6.9c-2.7-1.7-5.9-2.5-9.7-2.5h-10.2v39.6h10.2c3.9,0,7.2-0.9,9.8-2.6c2.6-1.7,4.6-4.1,6-7.1
			C363.4,309.2,364.1,305.8,364.1,302z"/>
		<path class="st2" d="M385,332.1V272h25.5c2.8,0,5.3,0.6,7.7,1.7c2.3,1.1,4.4,2.7,6.1,4.6c1.7,1.9,3,4.1,3.9,6.4s1.4,4.8,1.4,7.3
			c0,3.3-0.8,6.5-2.3,9.6c-1.5,3.1-3.7,5.6-6.5,7.5c-2.8,1.9-6.1,2.9-9.8,2.9h-14.3v20.2H385z M396.7,301.7h13.5
			c1.5,0,2.8-0.4,3.9-1.2c1.1-0.8,2-1.9,2.7-3.4c0.6-1.5,1-3.2,1-5.1c0-2.1-0.4-3.9-1.1-5.3c-0.8-1.4-1.8-2.5-3-3.3
			c-1.2-0.8-2.5-1.1-3.9-1.1h-13V301.7z"/>
		<path class="st2" d="M486.9,332.1v-39.5l-15.5,29.4h-6.5l-15.4-29.4v39.5h-11.7V272h12.6l17.7,34.1L486,272h12.5v60.1H486.9z"/>
	</g>
</g>
<g>
	<g>
		<path class="st2" d="M323.8,353v-8.6h2.9c0.9,0,1.7,0.2,2.3,0.6c0.6,0.4,1.1,0.9,1.4,1.6c0.3,0.7,0.5,1.4,0.5,2.2
			c0,0.9-0.2,1.6-0.5,2.3c-0.3,0.6-0.8,1.2-1.4,1.5s-1.4,0.5-2.2,0.5H323.8z M330,348.6c0-0.7-0.1-1.3-0.4-1.8
			c-0.3-0.5-0.6-1-1.1-1.3c-0.5-0.3-1.1-0.5-1.8-0.5h-2.1v7.1h2.1c0.7,0,1.3-0.2,1.8-0.5c0.5-0.3,0.9-0.7,1.1-1.3
			C329.9,349.9,330,349.3,330,348.6z"/>
		<path class="st2" d="M335,353.1c-0.5,0-0.9-0.1-1.3-0.3s-0.7-0.4-1-0.7c-0.3-0.3-0.5-0.7-0.7-1c-0.2-0.4-0.2-0.8-0.2-1.3
			c0-0.6,0.1-1.1,0.4-1.6c0.3-0.5,0.6-0.9,1.1-1.2c0.5-0.3,1-0.4,1.6-0.4c0.6,0,1.2,0.1,1.6,0.4s0.8,0.7,1.1,1.2
			c0.3,0.5,0.4,1,0.4,1.6c0,0.1,0,0.1,0,0.2s0,0.1,0,0.1h-5.4c0,0.5,0.2,0.9,0.4,1.2c0.2,0.4,0.5,0.6,0.8,0.8
			c0.3,0.2,0.7,0.3,1.1,0.3c0.4,0,0.8-0.1,1.2-0.3c0.4-0.2,0.6-0.5,0.8-0.8l0.7,0.2c-0.1,0.3-0.3,0.6-0.6,0.8s-0.6,0.4-0.9,0.6
			S335.5,353.1,335,353.1z M332.7,349.5h4.7c0-0.5-0.2-0.9-0.4-1.2c-0.2-0.3-0.5-0.6-0.8-0.8s-0.7-0.3-1.1-0.3s-0.8,0.1-1.1,0.3
			c-0.3,0.2-0.6,0.5-0.8,0.8C332.9,348.7,332.7,349.1,332.7,349.5z"/>
		<path class="st2" d="M341.3,353l-2.6-6.3h0.9l2.2,5.5l2.2-5.5h0.8l-2.6,6.3H341.3z"/>
		<path class="st2" d="M348.6,353.1c-0.5,0-0.9-0.1-1.3-0.3s-0.7-0.4-1-0.7c-0.3-0.3-0.5-0.7-0.7-1c-0.2-0.4-0.2-0.8-0.2-1.3
			c0-0.6,0.1-1.1,0.4-1.6c0.3-0.5,0.6-0.9,1.1-1.2c0.5-0.3,1-0.4,1.6-0.4c0.6,0,1.2,0.1,1.6,0.4s0.8,0.7,1.1,1.2
			c0.3,0.5,0.4,1,0.4,1.6c0,0.1,0,0.1,0,0.2s0,0.1,0,0.1h-5.4c0,0.5,0.2,0.9,0.4,1.2c0.2,0.4,0.5,0.6,0.8,0.8
			c0.3,0.2,0.7,0.3,1.1,0.3c0.4,0,0.8-0.1,1.2-0.3c0.4-0.2,0.6-0.5,0.8-0.8l0.7,0.2c-0.1,0.3-0.3,0.6-0.6,0.8s-0.6,0.4-0.9,0.6
			S349.1,353.1,348.6,353.1z M346.3,349.5h4.7c0-0.5-0.2-0.9-0.4-1.2c-0.2-0.3-0.5-0.6-0.8-0.8s-0.7-0.3-1.1-0.3s-0.8,0.1-1.1,0.3
			c-0.3,0.2-0.6,0.5-0.8,0.8C346.5,348.7,346.4,349.1,346.3,349.5z"/>
		<path class="st2" d="M353.1,344.1h0.8v7.5c0,0.3,0.1,0.5,0.2,0.6c0.1,0.1,0.3,0.1,0.4,0.1c0.1,0,0.3,0,0.4,0
			c0.1,0,0.3-0.1,0.4-0.1l0.1,0.7c-0.2,0.1-0.3,0.1-0.6,0.2c-0.2,0-0.4,0.1-0.6,0.1c-0.4,0-0.7-0.1-0.9-0.3
			c-0.2-0.2-0.3-0.5-0.3-0.9V344.1z"/>
		<path class="st2" d="M359.1,353.1c-0.5,0-0.9-0.1-1.3-0.3c-0.4-0.2-0.7-0.4-1-0.7c-0.3-0.3-0.5-0.6-0.6-1s-0.2-0.8-0.2-1.2
			c0-0.5,0.1-0.9,0.2-1.3s0.4-0.7,0.7-1c0.3-0.3,0.6-0.5,1-0.7c0.4-0.2,0.8-0.3,1.3-0.3s0.9,0.1,1.3,0.3c0.4,0.2,0.7,0.4,1,0.7
			c0.3,0.3,0.5,0.6,0.7,1s0.2,0.8,0.2,1.3c0,0.4-0.1,0.8-0.2,1.2s-0.4,0.7-0.6,1c-0.3,0.3-0.6,0.5-1,0.7
			C359.9,353,359.5,353.1,359.1,353.1z M356.8,349.9c0,0.5,0.1,0.9,0.3,1.3s0.5,0.7,0.8,0.9c0.3,0.2,0.7,0.3,1.2,0.3
			c0.4,0,0.8-0.1,1.2-0.3c0.3-0.2,0.6-0.5,0.8-0.9c0.2-0.4,0.3-0.8,0.3-1.3c0-0.5-0.1-0.9-0.3-1.3c-0.2-0.4-0.5-0.7-0.8-0.9
			c-0.3-0.2-0.7-0.3-1.2-0.3c-0.4,0-0.8,0.1-1.2,0.3c-0.3,0.2-0.6,0.5-0.8,0.9S356.8,349.4,356.8,349.9z"/>
		<path class="st2" d="M366.8,353.1c-0.5,0-1-0.1-1.4-0.4s-0.7-0.6-1-1v3.9h-0.8v-8.9h0.7v1.2c0.3-0.4,0.6-0.7,1-1
			c0.4-0.2,0.9-0.4,1.3-0.4c0.4,0,0.8,0.1,1.2,0.3c0.4,0.2,0.7,0.4,0.9,0.7c0.3,0.3,0.5,0.7,0.6,1c0.1,0.4,0.2,0.8,0.2,1.2
			c0,0.6-0.1,1.1-0.4,1.6c-0.2,0.5-0.6,0.9-1,1.2S367.4,353.1,366.8,353.1z M366.6,352.4c0.3,0,0.7-0.1,0.9-0.2s0.5-0.3,0.7-0.6
			c0.2-0.2,0.4-0.5,0.5-0.8c0.1-0.3,0.2-0.6,0.2-0.9c0-0.3-0.1-0.7-0.2-1c-0.1-0.3-0.3-0.6-0.5-0.8c-0.2-0.2-0.5-0.4-0.8-0.6
			s-0.6-0.2-0.9-0.2c-0.2,0-0.4,0-0.7,0.1c-0.2,0.1-0.4,0.2-0.6,0.3s-0.4,0.3-0.5,0.5c-0.1,0.2-0.2,0.4-0.3,0.6v1.9
			c0.1,0.3,0.3,0.6,0.5,0.8c0.2,0.2,0.5,0.4,0.8,0.6S366.3,352.4,366.6,352.4z"/>
		<path class="st2" d="M380.5,353h-0.8v-3.5c0-0.7-0.1-1.3-0.4-1.6c-0.2-0.3-0.6-0.5-1-0.5c-0.5,0-0.9,0.2-1.3,0.5
			c-0.4,0.3-0.6,0.8-0.8,1.3v3.8h-0.8v-3.5c0-0.7-0.1-1.3-0.3-1.6c-0.2-0.3-0.6-0.5-1-0.5c-0.5,0-0.9,0.2-1.3,0.5
			c-0.4,0.3-0.6,0.8-0.8,1.3v3.9h-0.8v-6.3h0.8v1.4c0.3-0.5,0.6-0.9,1-1.1s0.9-0.4,1.4-0.4c0.5,0,1,0.1,1.3,0.4
			c0.3,0.3,0.5,0.7,0.6,1.2c0.3-0.5,0.6-0.9,1.1-1.2c0.4-0.3,0.9-0.4,1.4-0.4c0.4,0,0.7,0.1,0.9,0.2c0.2,0.1,0.4,0.3,0.6,0.5
			c0.1,0.2,0.3,0.5,0.3,0.9s0.1,0.7,0.1,1.1V353z"/>
		<path class="st2" d="M385,353.1c-0.5,0-0.9-0.1-1.3-0.3s-0.7-0.4-1-0.7c-0.3-0.3-0.5-0.7-0.7-1c-0.2-0.4-0.2-0.8-0.2-1.3
			c0-0.6,0.1-1.1,0.4-1.6c0.3-0.5,0.6-0.9,1.1-1.2c0.5-0.3,1-0.4,1.6-0.4c0.6,0,1.2,0.1,1.6,0.4s0.8,0.7,1.1,1.2
			c0.3,0.5,0.4,1,0.4,1.6c0,0.1,0,0.1,0,0.2s0,0.1,0,0.1h-5.4c0,0.5,0.2,0.9,0.4,1.2c0.2,0.4,0.5,0.6,0.8,0.8
			c0.3,0.2,0.7,0.3,1.1,0.3c0.4,0,0.8-0.1,1.2-0.3c0.4-0.2,0.6-0.5,0.8-0.8l0.7,0.2c-0.1,0.3-0.3,0.6-0.6,0.8s-0.6,0.4-0.9,0.6
			S385.4,353.1,385,353.1z M382.6,349.5h4.7c0-0.5-0.2-0.9-0.4-1.2c-0.2-0.3-0.5-0.6-0.8-0.8s-0.7-0.3-1.1-0.3s-0.8,0.1-1.1,0.3
			c-0.3,0.2-0.6,0.5-0.8,0.8C382.8,348.7,382.7,349.1,382.6,349.5z"/>
		<path class="st2" d="M394.7,353h-0.8v-3.5c0-0.7-0.1-1.3-0.3-1.6c-0.2-0.3-0.6-0.5-1-0.5c-0.3,0-0.6,0.1-1,0.2
			c-0.3,0.2-0.6,0.4-0.8,0.6c-0.2,0.3-0.4,0.6-0.5,0.9v3.9h-0.8v-6.3h0.8v1.4c0.2-0.3,0.4-0.6,0.7-0.8s0.6-0.4,0.9-0.5
			s0.7-0.2,1.1-0.2c0.3,0,0.6,0.1,0.9,0.2c0.2,0.1,0.4,0.3,0.6,0.5c0.1,0.2,0.3,0.5,0.3,0.9s0.1,0.7,0.1,1.1V353z"/>
		<path class="st2" d="M399.5,352.7c-0.1,0-0.2,0.1-0.3,0.1c-0.1,0.1-0.3,0.1-0.5,0.2s-0.4,0.1-0.6,0.1c-0.2,0-0.5,0-0.7-0.1
			s-0.4-0.2-0.5-0.4c-0.1-0.2-0.2-0.4-0.2-0.7v-4.5h-0.9v-0.7h0.9v-2.1h0.8v2.1h1.5v0.7h-1.5v4.3c0,0.2,0.1,0.4,0.2,0.5
			c0.1,0.1,0.3,0.2,0.5,0.2c0.2,0,0.4,0,0.6-0.1c0.2-0.1,0.3-0.1,0.3-0.2L399.5,352.7z"/>
		<path class="st2" d="M403.8,353v-8.6h3.6c0.4,0,0.7,0.1,1,0.2c0.3,0.2,0.6,0.4,0.8,0.6c0.2,0.3,0.4,0.6,0.5,0.9
			c0.1,0.3,0.2,0.6,0.2,1c0,0.5-0.1,0.9-0.3,1.3c-0.2,0.4-0.5,0.8-0.9,1c-0.4,0.3-0.8,0.4-1.3,0.4h-2.8v3.2H403.8z M404.6,349h2.8
			c0.3,0,0.6-0.1,0.9-0.3c0.3-0.2,0.4-0.4,0.6-0.7c0.1-0.3,0.2-0.6,0.2-1c0-0.4-0.1-0.7-0.2-1s-0.4-0.5-0.6-0.7
			c-0.3-0.2-0.6-0.3-0.9-0.3h-2.7V349z"/>
		<path class="st2" d="M414.3,347.4c-0.6,0-1,0.2-1.5,0.5c-0.4,0.3-0.7,0.7-0.9,1.2v3.9h-0.8v-6.3h0.8v1.5c0.2-0.4,0.5-0.8,0.9-1.1
			c0.4-0.3,0.7-0.4,1.1-0.5c0.1,0,0.2,0,0.2,0s0.1,0,0.2,0V347.4z"/>
		<path class="st2" d="M418.1,353.1c-0.5,0-0.9-0.1-1.3-0.3c-0.4-0.2-0.7-0.4-1-0.7c-0.3-0.3-0.5-0.6-0.6-1s-0.2-0.8-0.2-1.2
			c0-0.5,0.1-0.9,0.2-1.3s0.4-0.7,0.7-1c0.3-0.3,0.6-0.5,1-0.7c0.4-0.2,0.8-0.3,1.3-0.3s0.9,0.1,1.3,0.3c0.4,0.2,0.7,0.4,1,0.7
			c0.3,0.3,0.5,0.6,0.7,1s0.2,0.8,0.2,1.3c0,0.4-0.1,0.8-0.2,1.2s-0.4,0.7-0.6,1c-0.3,0.3-0.6,0.5-1,0.7
			C419,353,418.6,353.1,418.1,353.1z M415.8,349.9c0,0.5,0.1,0.9,0.3,1.3s0.5,0.7,0.8,0.9c0.3,0.2,0.7,0.3,1.2,0.3
			c0.4,0,0.8-0.1,1.2-0.3c0.3-0.2,0.6-0.5,0.8-0.9c0.2-0.4,0.3-0.8,0.3-1.3c0-0.5-0.1-0.9-0.3-1.3c-0.2-0.4-0.5-0.7-0.8-0.9
			c-0.3-0.2-0.7-0.3-1.2-0.3c-0.4,0-0.8,0.1-1.2,0.3c-0.3,0.2-0.6,0.5-0.8,0.9S415.8,349.4,415.8,349.9z"/>
		<path class="st2" d="M425.4,353.1c-0.5,0-0.9-0.1-1.3-0.3c-0.4-0.2-0.7-0.4-1-0.7c-0.3-0.3-0.5-0.7-0.7-1.1s-0.2-0.8-0.2-1.3
			c0-0.6,0.1-1.1,0.4-1.6s0.6-0.9,1.1-1.2c0.5-0.3,1-0.4,1.7-0.4c0.6,0,1.1,0.1,1.6,0.4c0.5,0.3,0.8,0.6,1,1.1l-0.8,0.3
			c-0.2-0.3-0.4-0.6-0.7-0.8c-0.3-0.2-0.7-0.3-1.1-0.3c-0.4,0-0.8,0.1-1.2,0.3c-0.3,0.2-0.6,0.5-0.8,0.9c-0.2,0.4-0.3,0.8-0.3,1.3
			c0,0.5,0.1,0.9,0.3,1.3c0.2,0.4,0.5,0.7,0.8,0.9c0.3,0.2,0.7,0.3,1.2,0.3c0.3,0,0.5,0,0.8-0.1c0.3-0.1,0.5-0.2,0.7-0.4
			s0.3-0.3,0.4-0.5l0.8,0.2c-0.1,0.3-0.3,0.6-0.6,0.8c-0.3,0.2-0.6,0.4-0.9,0.6C426.2,353,425.8,353.1,425.4,353.1z"/>
		<path class="st2" d="M432.1,353.1c-0.5,0-0.9-0.1-1.3-0.3s-0.7-0.4-1-0.7c-0.3-0.3-0.5-0.7-0.7-1c-0.2-0.4-0.2-0.8-0.2-1.3
			c0-0.6,0.1-1.1,0.4-1.6s0.6-0.9,1.1-1.2c0.5-0.3,1-0.4,1.6-0.4c0.6,0,1.2,0.1,1.6,0.4s0.8,0.7,1.1,1.2c0.3,0.5,0.4,1,0.4,1.6
			c0,0.1,0,0.1,0,0.2s0,0.1,0,0.1h-5.4c0,0.5,0.2,0.9,0.4,1.2c0.2,0.4,0.5,0.6,0.8,0.8c0.3,0.2,0.7,0.3,1.1,0.3
			c0.4,0,0.8-0.1,1.2-0.3c0.4-0.2,0.6-0.5,0.8-0.8l0.7,0.2c-0.1,0.3-0.3,0.6-0.6,0.8c-0.3,0.2-0.6,0.4-0.9,0.6
			C432.9,353,432.5,353.1,432.1,353.1z M429.7,349.5h4.7c0-0.5-0.2-0.9-0.4-1.2s-0.5-0.6-0.8-0.8c-0.3-0.2-0.7-0.3-1.1-0.3
			s-0.8,0.1-1.1,0.3s-0.6,0.5-0.8,0.8C429.9,348.7,429.8,349.1,429.7,349.5z"/>
		<path class="st2" d="M438.5,353.1c-0.5,0-1-0.1-1.4-0.3s-0.8-0.4-1.2-0.8l0.3-0.6c0.4,0.3,0.7,0.6,1.1,0.7
			c0.4,0.2,0.7,0.2,1.1,0.2c0.5,0,0.9-0.1,1.2-0.3c0.3-0.2,0.5-0.5,0.5-0.8c0-0.3-0.1-0.4-0.2-0.6c-0.2-0.1-0.4-0.2-0.6-0.3
			c-0.3-0.1-0.6-0.2-1-0.3c-0.4-0.1-0.8-0.2-1.1-0.4c-0.3-0.1-0.5-0.3-0.7-0.5c-0.1-0.2-0.2-0.5-0.2-0.8c0-0.4,0.1-0.8,0.3-1
			c0.2-0.3,0.5-0.5,0.9-0.6c0.4-0.1,0.8-0.2,1.2-0.2c0.5,0,0.9,0.1,1.3,0.2c0.4,0.2,0.7,0.4,0.9,0.6l-0.4,0.6
			c-0.2-0.3-0.5-0.5-0.8-0.6c-0.3-0.1-0.7-0.2-1-0.2c-0.3,0-0.5,0-0.7,0.1c-0.2,0.1-0.4,0.2-0.6,0.3c-0.1,0.2-0.2,0.4-0.2,0.6
			c0,0.2,0.1,0.4,0.2,0.5c0.1,0.1,0.3,0.2,0.5,0.3c0.2,0.1,0.5,0.2,0.8,0.3c0.5,0.1,0.9,0.3,1.3,0.4s0.6,0.3,0.8,0.5
			s0.3,0.5,0.3,0.9c0,0.6-0.2,1-0.7,1.4C439.9,352.9,439.3,353.1,438.5,353.1z"/>
		<path class="st2" d="M444.4,353.1c-0.5,0-1-0.1-1.4-0.3s-0.8-0.4-1.2-0.8l0.3-0.6c0.4,0.3,0.7,0.6,1.1,0.7
			c0.4,0.2,0.7,0.2,1.1,0.2c0.5,0,0.9-0.1,1.2-0.3c0.3-0.2,0.5-0.5,0.5-0.8c0-0.3-0.1-0.4-0.2-0.6c-0.2-0.1-0.4-0.2-0.6-0.3
			c-0.3-0.1-0.6-0.2-1-0.3c-0.4-0.1-0.8-0.2-1.1-0.4c-0.3-0.1-0.5-0.3-0.7-0.5c-0.1-0.2-0.2-0.5-0.2-0.8c0-0.4,0.1-0.8,0.3-1
			c0.2-0.3,0.5-0.5,0.9-0.6c0.4-0.1,0.8-0.2,1.2-0.2c0.5,0,0.9,0.1,1.3,0.2c0.4,0.2,0.7,0.4,0.9,0.6l-0.4,0.6
			c-0.2-0.3-0.5-0.5-0.8-0.6c-0.3-0.1-0.7-0.2-1-0.2c-0.3,0-0.5,0-0.7,0.1c-0.2,0.1-0.4,0.2-0.6,0.3c-0.1,0.2-0.2,0.4-0.2,0.6
			c0,0.2,0.1,0.4,0.2,0.5c0.1,0.1,0.3,0.2,0.5,0.3c0.2,0.1,0.5,0.2,0.8,0.3c0.5,0.1,0.9,0.3,1.3,0.4s0.6,0.3,0.8,0.5
			s0.3,0.5,0.3,0.9c0,0.6-0.2,1-0.7,1.4C445.7,352.9,445.1,353.1,444.4,353.1z"/>
		<path class="st2" d="M459.1,353v-7l-3.1,5.5h-0.5l-3.1-5.5v7h-0.9v-8.6h0.9l3.4,5.9l3.4-5.9h0.9v8.6H459.1z"/>
		<path class="st2" d="M461.4,351.2c0-0.4,0.1-0.7,0.3-1c0.2-0.3,0.5-0.5,0.9-0.7c0.4-0.2,0.9-0.2,1.4-0.2c0.3,0,0.6,0,1,0.1
			s0.6,0.1,0.9,0.2V349c0-0.5-0.2-1-0.5-1.3c-0.3-0.3-0.8-0.5-1.3-0.5c-0.3,0-0.7,0.1-1,0.2c-0.3,0.1-0.7,0.3-1,0.6l-0.3-0.6
			c0.4-0.3,0.8-0.5,1.2-0.6c0.4-0.1,0.8-0.2,1.2-0.2c0.8,0,1.4,0.2,1.8,0.7c0.5,0.4,0.7,1.1,0.7,1.8v2.9c0,0.1,0,0.2,0.1,0.2
			c0,0.1,0.1,0.1,0.2,0.1v0.7c-0.1,0-0.2,0-0.2,0s-0.1,0-0.1,0c-0.2,0-0.4-0.1-0.5-0.2c-0.1-0.1-0.2-0.3-0.2-0.4l0-0.5
			c-0.3,0.4-0.7,0.6-1.1,0.8c-0.5,0.2-0.9,0.3-1.4,0.3c-0.4,0-0.8-0.1-1.1-0.3c-0.3-0.2-0.6-0.4-0.8-0.7
			C461.5,351.8,461.4,351.5,461.4,351.2z M465.7,351.6c0.1-0.1,0.2-0.2,0.2-0.3c0-0.1,0.1-0.2,0.1-0.3v-0.9
			c-0.3-0.1-0.6-0.2-0.9-0.2c-0.3-0.1-0.6-0.1-0.9-0.1c-0.6,0-1.1,0.1-1.4,0.3s-0.5,0.5-0.5,1c0,0.2,0.1,0.5,0.2,0.7
			c0.1,0.2,0.3,0.4,0.5,0.5c0.2,0.1,0.5,0.2,0.8,0.2c0.4,0,0.8-0.1,1.1-0.2C465.2,352.1,465.5,351.9,465.7,351.6z"/>
		<path class="st2" d="M473.9,353h-0.8v-3.5c0-0.7-0.1-1.3-0.3-1.6c-0.2-0.3-0.6-0.5-1-0.5c-0.3,0-0.6,0.1-1,0.2
			c-0.3,0.2-0.6,0.4-0.8,0.6c-0.2,0.3-0.4,0.6-0.5,0.9v3.9h-0.8v-6.3h0.8v1.4c0.2-0.3,0.4-0.6,0.7-0.8s0.6-0.4,0.9-0.5
			c0.3-0.1,0.7-0.2,1.1-0.2c0.3,0,0.6,0.1,0.9,0.2s0.4,0.3,0.6,0.5c0.1,0.2,0.3,0.5,0.3,0.9c0.1,0.3,0.1,0.7,0.1,1.1V353z"/>
		<path class="st2" d="M475.1,351.2c0-0.4,0.1-0.7,0.3-1c0.2-0.3,0.5-0.5,0.9-0.7c0.4-0.2,0.9-0.2,1.4-0.2c0.3,0,0.6,0,1,0.1
			s0.6,0.1,0.9,0.2V349c0-0.5-0.2-1-0.5-1.3c-0.3-0.3-0.8-0.5-1.3-0.5c-0.3,0-0.7,0.1-1,0.2c-0.3,0.1-0.7,0.3-1,0.6l-0.3-0.6
			c0.4-0.3,0.8-0.5,1.2-0.6c0.4-0.1,0.8-0.2,1.2-0.2c0.8,0,1.4,0.2,1.8,0.7c0.5,0.4,0.7,1.1,0.7,1.8v2.9c0,0.1,0,0.2,0.1,0.2
			c0,0.1,0.1,0.1,0.2,0.1v0.7c-0.1,0-0.2,0-0.2,0s-0.1,0-0.1,0c-0.2,0-0.4-0.1-0.5-0.2c-0.1-0.1-0.2-0.3-0.2-0.4l0-0.5
			c-0.3,0.4-0.7,0.6-1.1,0.8c-0.5,0.2-0.9,0.3-1.4,0.3c-0.4,0-0.8-0.1-1.1-0.3c-0.3-0.2-0.6-0.4-0.8-0.7
			C475.2,351.8,475.1,351.5,475.1,351.2z M479.4,351.6c0.1-0.1,0.2-0.2,0.2-0.3c0-0.1,0.1-0.2,0.1-0.3v-0.9
			c-0.3-0.1-0.6-0.2-0.9-0.2c-0.3-0.1-0.6-0.1-0.9-0.1c-0.6,0-1.1,0.1-1.4,0.3s-0.5,0.5-0.5,1c0,0.2,0.1,0.5,0.2,0.7
			c0.1,0.2,0.3,0.4,0.5,0.5c0.2,0.1,0.5,0.2,0.8,0.2c0.4,0,0.8-0.1,1.1-0.2C478.9,352.1,479.2,351.9,479.4,351.6z"/>
		<path class="st2" d="M484.8,353.1c-0.4,0-0.8-0.1-1.2-0.3c-0.4-0.2-0.7-0.4-0.9-0.7c-0.3-0.3-0.5-0.7-0.6-1
			c-0.1-0.4-0.2-0.8-0.2-1.2c0-0.4,0.1-0.9,0.2-1.3c0.1-0.4,0.3-0.7,0.6-1.1c0.3-0.3,0.6-0.5,0.9-0.7c0.4-0.2,0.8-0.3,1.2-0.3
			c0.5,0,1,0.1,1.4,0.4c0.4,0.3,0.7,0.6,1,1v-1.3h0.7v6.3c0,0.6-0.1,1.1-0.4,1.5c-0.3,0.4-0.7,0.7-1.1,0.9c-0.5,0.2-1,0.3-1.5,0.3
			c-0.7,0-1.3-0.1-1.7-0.4c-0.4-0.3-0.8-0.6-1.1-1l0.5-0.4c0.3,0.4,0.6,0.7,1,0.9s0.9,0.3,1.3,0.3c0.4,0,0.8-0.1,1.1-0.2
			c0.3-0.1,0.6-0.4,0.8-0.7c0.2-0.3,0.3-0.7,0.3-1.1v-1.3c-0.2,0.4-0.6,0.7-1,1C485.7,353,485.3,353.1,484.8,353.1z M485,352.4
			c0.3,0,0.5,0,0.7-0.1c0.2-0.1,0.4-0.2,0.6-0.4c0.2-0.2,0.4-0.3,0.5-0.5c0.1-0.2,0.2-0.4,0.2-0.6v-2c-0.1-0.3-0.3-0.6-0.5-0.8
			c-0.2-0.2-0.5-0.4-0.8-0.6c-0.3-0.1-0.6-0.2-0.9-0.2c-0.4,0-0.7,0.1-1,0.2c-0.3,0.2-0.5,0.3-0.7,0.6c-0.2,0.2-0.3,0.5-0.4,0.8
			c-0.1,0.3-0.2,0.6-0.2,0.9c0,0.3,0.1,0.7,0.2,1c0.1,0.3,0.3,0.6,0.5,0.8c0.2,0.2,0.5,0.4,0.8,0.6
			C484.4,352.3,484.7,352.4,485,352.4z"/>
		<path class="st2" d="M492.5,353.1c-0.5,0-0.9-0.1-1.3-0.3s-0.7-0.4-1-0.7c-0.3-0.3-0.5-0.7-0.7-1c-0.2-0.4-0.2-0.8-0.2-1.3
			c0-0.6,0.1-1.1,0.4-1.6s0.6-0.9,1.1-1.2c0.5-0.3,1-0.4,1.6-0.4c0.6,0,1.2,0.1,1.6,0.4s0.8,0.7,1.1,1.2c0.3,0.5,0.4,1,0.4,1.6
			c0,0.1,0,0.1,0,0.2s0,0.1,0,0.1h-5.4c0,0.5,0.2,0.9,0.4,1.2c0.2,0.4,0.5,0.6,0.8,0.8c0.3,0.2,0.7,0.3,1.1,0.3
			c0.4,0,0.8-0.1,1.2-0.3c0.4-0.2,0.6-0.5,0.8-0.8l0.7,0.2c-0.1,0.3-0.3,0.6-0.6,0.8c-0.3,0.2-0.6,0.4-0.9,0.6
			C493.3,353,492.9,353.1,492.5,353.1z M490.2,349.5h4.7c0-0.5-0.2-0.9-0.4-1.2s-0.5-0.6-0.8-0.8c-0.3-0.2-0.7-0.3-1.1-0.3
			s-0.8,0.1-1.1,0.3s-0.6,0.5-0.8,0.8C490.3,348.7,490.2,349.1,490.2,349.5z"/>
		<path class="st2" d="M500.1,347.4c-0.6,0-1,0.2-1.5,0.5c-0.4,0.3-0.7,0.7-0.9,1.2v3.9h-0.8v-6.3h0.8v1.5c0.2-0.4,0.5-0.8,0.9-1.1
			s0.7-0.4,1.1-0.5c0.1,0,0.2,0,0.2,0c0.1,0,0.1,0,0.2,0V347.4z"/>
	</g>
</g>
</svg>
