<svg id="Warstwa_1" data-name="Warstwa 1" xmlns="http://www.w3.org/2000/svg" viewBox="0 0 176.3 107.1"><defs><style>.cls-1{fill:#754c29;}.cls-2{fill:#fff;}</style></defs><title>logo</title><path class="cls-1" d="M407.1,327a3.56,3.56,0,0,1-3.5-3.6,3.48,3.48,0,0,1,3.5-3.5,3.42,3.42,0,0,1,3.5,3.5A3.5,3.5,0,0,1,407.1,327Z" transform="translate(-323.8 -248.5)"/><path class="cls-1" d="M398.3,324.5a3.29,3.29,0,0,1-3.3-3.4,3.23,3.23,0,0,1,3.4-3.3,3.31,3.31,0,0,1,3.4,3.4A3.66,3.66,0,0,1,398.3,324.5Z" transform="translate(-323.8 -248.5)"/><path class="cls-1" d="M406,314.7a3.3,3.3,0,0,1,6.6,0,3.21,3.21,0,0,1-3.3,3.3A3.27,3.27,0,0,1,406,314.7Z" transform="translate(-323.8 -248.5)"/><path class="cls-1" d="M415.7,329.1a3.22,3.22,0,0,1-3.2-3.2,3.2,3.2,0,1,1,6.4.1A3.2,3.2,0,0,1,415.7,329.1Z" transform="translate(-323.8 -248.5)"/><path class="cls-1" d="M403.9,312.3a3.22,3.22,0,0,1-3.2,3.2,3.2,3.2,0,0,1,0-6.4A3.22,3.22,0,0,1,403.9,312.3Z" transform="translate(-323.8 -248.5)"/><path class="cls-1" d="M418.1,320.3a3.2,3.2,0,1,1,3.2-3.2A3.36,3.36,0,0,1,418.1,320.3Z" transform="translate(-323.8 -248.5)"/><path class="cls-1" d="M414.7,305.9a3,3,0,0,1-3,3,3.05,3.05,0,1,1,3-3Z" transform="translate(-323.8 -248.5)"/><path class="cls-1" d="M389.5,321.7a3,3,0,0,1-3-3,3,3,0,0,1,6,0A3,3,0,0,1,389.5,321.7Z" transform="translate(-323.8 -248.5)"/><path class="cls-1" d="M402.8,306.7a3.08,3.08,0,0,1-3-3,2.92,2.92,0,0,1,3-2.9,3,3,0,0,1,2.9,3A2.78,2.78,0,0,1,402.8,306.7Z" transform="translate(-323.8 -248.5)"/><path class="cls-1" d="M394.9,310.1a2.92,2.92,0,0,1-3,2.9,3,3,0,0,1,.1-6A3.15,3.15,0,0,1,394.9,310.1Z" transform="translate(-323.8 -248.5)"/><path class="cls-1" d="M420.5,311.3a3,3,0,1,1,2.9-3A3.06,3.06,0,0,1,420.5,311.3Z" transform="translate(-323.8 -248.5)"/><path class="cls-1" d="M398.8,329.9a2.9,2.9,0,1,1-2.9-2.9A2.84,2.84,0,0,1,398.8,329.9Z" transform="translate(-323.8 -248.5)"/><path class="cls-1" d="M404.7,329.4a2.84,2.84,0,0,1,2.9,2.9,2.78,2.78,0,0,1-2.9,2.9,2.9,2.9,0,1,1,0-5.8Z" transform="translate(-323.8 -248.5)"/><path class="cls-1" d="M394.3,304.1a2.86,2.86,0,0,1-2.8-2.8,3.11,3.11,0,0,1,2.8-2.9,3,3,0,0,1,2.8,2.9A2.8,2.8,0,0,1,394.3,304.1Z" transform="translate(-323.8 -248.5)"/><path class="cls-1" d="M416.9,297.3a2.8,2.8,0,0,1-2.8,2.8,2.73,2.73,0,0,1-2.8-2.8,2.65,2.65,0,0,1,2.8-2.7A2.71,2.71,0,0,1,416.9,297.3Z" transform="translate(-323.8 -248.5)"/><path class="cls-1" d="M408,294.9a2.63,2.63,0,0,1-2.7,2.7,2.57,2.57,0,0,1-2.7-2.7,2.52,2.52,0,0,1,2.7-2.7A2.63,2.63,0,0,1,408,294.9Z" transform="translate(-323.8 -248.5)"/><path class="cls-1" d="M429.6,319.5a2.63,2.63,0,0,1-2.7,2.7,2.7,2.7,0,1,1,2.7-2.7Z" transform="translate(-323.8 -248.5)"/><path class="cls-1" d="M422.7,302.2a2.63,2.63,0,0,1-2.7-2.7,2.69,2.69,0,0,1,2.7-2.7,2.57,2.57,0,0,1,2.7,2.7A2.63,2.63,0,0,1,422.7,302.2Z" transform="translate(-323.8 -248.5)"/><path class="cls-1" d="M426.4,310.6a2.61,2.61,0,0,1,2.7-2.6,2.65,2.65,0,1,1-.1,5.3A2.49,2.49,0,0,1,426.4,310.6Z" transform="translate(-323.8 -248.5)"/><path class="cls-1" d="M383.1,310.3a2.65,2.65,0,0,1-2.6-2.6,2.81,2.81,0,0,1,2.7-2.6,2.6,2.6,0,1,1-.1,5.2Z" transform="translate(-323.8 -248.5)"/><path class="cls-1" d="M396.5,295.1a2.65,2.65,0,0,1-2.6-2.6,2.55,2.55,0,1,1,2.6,2.6Z" transform="translate(-323.8 -248.5)"/><path class="cls-1" d="M383.3,316.5a2.63,2.63,0,0,1-2.5,2.6,2.52,2.52,0,0,1-2.6-2.6,2.44,2.44,0,0,1,2.6-2.5A2.47,2.47,0,0,1,383.3,316.5Z" transform="translate(-323.8 -248.5)"/><path class="cls-1" d="M388.1,298.9a2.44,2.44,0,0,1-2.6,2.5,2.39,2.39,0,0,1-2.5-2.6,2.42,2.42,0,0,1,2.5-2.5A2.72,2.72,0,0,1,388.1,298.9Z" transform="translate(-323.8 -248.5)"/><path class="cls-1" d="M384.6,327.4a2.46,2.46,0,0,1,2.5-2.4,2.45,2.45,0,1,1-2.5,2.4Z" transform="translate(-323.8 -248.5)"/><path class="cls-1" d="M429,301.9a2.47,2.47,0,0,1,2.5-2.5,2.43,2.43,0,0,1,2.4,2.4,2.48,2.48,0,0,1-2.5,2.5A2.37,2.37,0,0,1,429,301.9Z" transform="translate(-323.8 -248.5)"/><path class="cls-1" d="M413.8,288.5a2.45,2.45,0,1,1,2.4,2.5A2.47,2.47,0,0,1,413.8,288.5Z" transform="translate(-323.8 -248.5)"/><path class="cls-1" d="M410.1,286.1a2.4,2.4,0,1,1-4.8-.1,2.52,2.52,0,0,1,2.5-2.4A2.59,2.59,0,0,1,410.1,286.1Z" transform="translate(-323.8 -248.5)"/><path class="cls-1" d="M427.5,290.9a2.4,2.4,0,1,1-2.4-2.4A2.5,2.5,0,0,1,427.5,290.9Z" transform="translate(-323.8 -248.5)"/><path class="cls-1" d="M387.9,292.7a2.37,2.37,0,0,1-2.4-2.4,2.29,2.29,0,0,1,2.3-2.4,2.35,2.35,0,0,1,2.4,2.3A2.37,2.37,0,0,1,387.9,292.7Z" transform="translate(-323.8 -248.5)"/><path class="cls-1" d="M396.6,283.9a2.26,2.26,0,0,1,2.3-2.3,2.2,2.2,0,0,1,2.3,2.3,2.3,2.3,0,0,1-4.6,0Z" transform="translate(-323.8 -248.5)"/><path class="cls-1" d="M426.7,328.1a2.2,2.2,0,1,1-2.2-2.2A2.29,2.29,0,0,1,426.7,328.1Z" transform="translate(-323.8 -248.5)"/><path class="cls-1" d="M436.1,293.1a2.2,2.2,0,1,1-2.2-2.2A2.22,2.22,0,0,1,436.1,293.1Z" transform="translate(-323.8 -248.5)"/><path class="cls-1" d="M376.5,305.3a2.07,2.07,0,0,1-2.2,2.1,2,2,0,0,1-2.1-2.2,2,2,0,0,1,2.2-2.1A2.27,2.27,0,0,1,376.5,305.3Z" transform="translate(-323.8 -248.5)"/><path class="cls-1" d="M415.6,334.5a2.15,2.15,0,0,1-4.3-.1,2,2,0,0,1,2.2-2.1A2.08,2.08,0,0,1,415.6,334.5Z" transform="translate(-323.8 -248.5)"/><path class="cls-1" d="M378.9,296.7a2.11,2.11,0,0,1-2.1,2.1,2,2,0,0,1-2.2-2.2,2,2,0,0,1,2.2-2.1A2.36,2.36,0,0,1,378.9,296.7Z" transform="translate(-323.8 -248.5)"/><path class="cls-1" d="M420.8,279.7a2.1,2.1,0,0,1-4.2,0,2,2,0,0,1,2.1-2.1A2.11,2.11,0,0,1,420.8,279.7Z" transform="translate(-323.8 -248.5)"/><path class="cls-1" d="M407.8,277.4a2.05,2.05,0,1,1,4.1.1,1.91,1.91,0,0,1-2.1,2A1.87,1.87,0,0,1,407.8,277.4Z" transform="translate(-323.8 -248.5)"/><path class="cls-1" d="M388.1,281.5a2,2,0,0,1,2.1-2.1,2.05,2.05,0,0,1,0,4.1A1.87,1.87,0,0,1,388.1,281.5Z" transform="translate(-323.8 -248.5)"/><path class="cls-1" d="M437.8,315.1a2,2,0,0,1-2-2,2.17,2.17,0,0,1,2.1-2,2.09,2.09,0,0,1,2,2.1A2,2,0,0,1,437.8,315.1Z" transform="translate(-323.8 -248.5)"/><path class="cls-1" d="M429.5,282.1a1.94,1.94,0,0,1-2,2,2.07,2.07,0,0,1-2-2,2.25,2.25,0,0,1,2-2.1A2.16,2.16,0,0,1,429.5,282.1Z" transform="translate(-323.8 -248.5)"/><path class="cls-1" d="M442.3,304.3a2,2,0,0,1-4,0,2,2,0,0,1,4,0Z" transform="translate(-323.8 -248.5)"/><path class="cls-1" d="M379.1,289.9a2.07,2.07,0,0,1-2-2,2.15,2.15,0,0,1,2-2,2,2,0,0,1,0,4Z" transform="translate(-323.8 -248.5)"/><path class="cls-1" d="M374.1,314.1a2,2,0,0,1-2,2,1.87,1.87,0,0,1-2-1.9,1.92,1.92,0,0,1,1.9-2A1.89,1.89,0,0,1,374.1,314.1Z" transform="translate(-323.8 -248.5)"/><path class="cls-1" d="M403.2,275.1a1.92,1.92,0,0,1-2,1.9,2,2,0,1,1,.1-3.9A1.92,1.92,0,0,1,403.2,275.1Z" transform="translate(-323.8 -248.5)"/><path class="cls-1" d="M376.6,325.1a1.78,1.78,0,0,1,1.9-1.9,1.84,1.84,0,0,1,1.9,1.9,1.81,1.81,0,0,1-1.8,1.9A1.87,1.87,0,0,1,376.6,325.1Z" transform="translate(-323.8 -248.5)"/><path class="cls-1" d="M436.3,286.3c-1,.1-1.8-1-1.9-1.8a2.23,2.23,0,0,1,1.8-1.9,1.94,1.94,0,0,1,1.8,1.8A1.69,1.69,0,0,1,436.3,286.3Z" transform="translate(-323.8 -248.5)"/><path class="cls-1" d="M444.4,295.5a1.94,1.94,0,0,1-1.8,1.8,1.86,1.86,0,0,1-1.8-1.8,1.8,1.8,0,1,1,3.6,0Z" transform="translate(-323.8 -248.5)"/><path class="cls-1" d="M383.3,279.1a1.8,1.8,0,1,1-3.6,0,1.84,1.84,0,0,1,1.7-1.8A2,2,0,0,1,383.3,279.1Z" transform="translate(-323.8 -248.5)"/><path class="cls-1" d="M435.5,320a1.7,1.7,0,1,1,0,3.4c-1-.1-1.7-.6-1.7-1.7A1.58,1.58,0,0,1,435.5,320Z" transform="translate(-323.8 -248.5)"/><path class="cls-1" d="M394.2,272.7a1.77,1.77,0,0,1-1.8,1.7,1.69,1.69,0,0,1-1.7-1.7,1.63,1.63,0,0,1,1.7-1.7A1.66,1.66,0,0,1,394.2,272.7Z" transform="translate(-323.8 -248.5)"/><path class="cls-1" d="M419.4,271.1a1.7,1.7,0,1,1,3.4,0,1.63,1.63,0,0,1-1.7,1.7A1.69,1.69,0,0,1,419.4,271.1Z" transform="translate(-323.8 -248.5)"/><path class="cls-1" d="M413.9,268.7a1.64,1.64,0,0,1-1.6,1.6,1.75,1.75,0,0,1-1.7-1.7,1.65,1.65,0,0,1,3.3.1Z" transform="translate(-323.8 -248.5)"/><path class="cls-1" d="M369.5,294.3a1.64,1.64,0,0,1-1.6,1.6,1.6,1.6,0,1,1,0-3.2A1.64,1.64,0,0,1,369.5,294.3Z" transform="translate(-323.8 -248.5)"/><path class="cls-1" d="M431.5,273.3a1.64,1.64,0,0,1-1.6,1.6,1.6,1.6,0,1,1,1.6-1.6Z" transform="translate(-323.8 -248.5)"/><path class="cls-1" d="M403.5,267.9a1.56,1.56,0,0,1-1.5-1.6,1.5,1.5,0,1,1,3,0A1.56,1.56,0,0,1,403.5,267.9Z" transform="translate(-323.8 -248.5)"/><path class="cls-1" d="M365.7,301.5a1.5,1.5,0,0,1,1.5,1.6,1.42,1.42,0,0,1-1.5,1.5,1.5,1.5,0,0,1-1.6-1.5A1.72,1.72,0,0,1,365.7,301.5Z" transform="translate(-323.8 -248.5)"/><path class="cls-1" d="M370.3,284a1.5,1.5,0,1,1-1.5,1.5A1.54,1.54,0,0,1,370.3,284Z" transform="translate(-323.8 -248.5)"/><path class="cls-1" d="M446.3,286.7a1.31,1.31,0,0,1-1.4,1.4,1.4,1.4,0,1,1-.1-2.8C445.5,285.3,446.4,286,446.3,286.7Z" transform="translate(-323.8 -248.5)"/><path class="cls-1" d="M439.9,275.7c.1.6-.7,1.4-1.4,1.4a1.4,1.4,0,1,1,0-2.8A1.59,1.59,0,0,1,439.9,275.7Z" transform="translate(-323.8 -248.5)"/><path class="cls-1" d="M385.1,270.3a1.43,1.43,0,0,1-1.4,1.4,1.35,1.35,0,0,1-1.4-1.3,1.37,1.37,0,0,1,1.4-1.4A1.34,1.34,0,0,1,385.1,270.3Z" transform="translate(-323.8 -248.5)"/><path class="cls-1" d="M393.6,263.9a1.24,1.24,0,0,1,1.2-1.3,1.26,1.26,0,0,1,1.3,1.3,1.18,1.18,0,0,1-1.3,1.2A1.1,1.1,0,0,1,393.6,263.9Z" transform="translate(-323.8 -248.5)"/><path class="cls-1" d="M373.9,276.7a1.22,1.22,0,0,1-1.2,1.2c-.6,0-1.3-.7-1.2-1.2a1.18,1.18,0,0,1,1.3-1.2A1.13,1.13,0,0,1,373.9,276.7Z" transform="translate(-323.8 -248.5)"/><path class="cls-1" d="M369.7,321.8c.7,0,1,.5,1.1,1.1s-.5,1.1-1.1,1.1a1.11,1.11,0,0,1-1.1-1.1A1,1,0,0,1,369.7,321.8Z" transform="translate(-323.8 -248.5)"/><path class="cls-1" d="M362.2,311.7a1,1,0,0,1,1.1-1.1c.7,0,1,.5,1.1,1.1s-.5,1.1-1.1,1.1A1.18,1.18,0,0,1,362.2,311.7Z" transform="translate(-323.8 -248.5)"/><path class="cls-1" d="M423.5,261.2a1,1,0,0,1,1.1,1.1c.1.5-.5,1.1-1.1,1.1a1.11,1.11,0,0,1-1.1-1.1A1,1,0,0,1,423.5,261.2Z" transform="translate(-323.8 -248.5)"/><path class="cls-1" d="M450.1,306.7c.1.6-.4,1-1,1a1,1,0,0,1-1-1,1,1,0,0,1,1.1-1A.92.92,0,0,1,450.1,306.7Z" transform="translate(-323.8 -248.5)"/><path class="cls-1" d="M415.7,259.9a.86.86,0,0,1-1,1,1.05,1.05,0,0,1-.1-2.1C415.2,258.9,415.8,259.3,415.7,259.9Z" transform="translate(-323.8 -248.5)"/><path class="cls-1" d="M452.2,297.9a.94.94,0,0,1-1,1,1,1,0,1,1,0-2C451.8,296.9,452.3,297.3,452.2,297.9Z" transform="translate(-323.8 -248.5)"/><path class="cls-1" d="M394.5,338.6a1,1,0,1,1-1-1A1.17,1.17,0,0,1,394.5,338.6Z" transform="translate(-323.8 -248.5)"/><path class="cls-1" d="M433.1,264.7c.1.5-.5,1-1,1a1.17,1.17,0,0,1-1-1,1,1,0,1,1,2,0Z" transform="translate(-323.8 -248.5)"/><path class="cls-1" d="M445.8,315.3c0-.6.3-.9.8-.9.7,0,.9.3.9.9a.9.9,0,0,1-.9.9C446.2,316.1,445.8,316,445.8,315.3Z" transform="translate(-323.8 -248.5)"/><path class="cls-1" d="M447.3,277.2c.6,0,.8.4.9.9a.9.9,0,0,1-.9.9c-.6-.1-.8-.3-.8-.9S446.7,277.2,447.3,277.2Z" transform="translate(-323.8 -248.5)"/><path class="cls-1" d="M405,257.5a.84.84,0,0,1,.9-.9c.6,0,.8.3.9.9a.9.9,0,0,1-.9.9C405.3,258.3,405,258.1,405,257.5Z" transform="translate(-323.8 -248.5)"/><path class="cls-1" d="M384,336.3a.73.73,0,0,1,.9-.8c.6,0,.8.4.9.9a.9.9,0,0,1-.9.9C384.3,337.1,384,336.8,384,336.3Z" transform="translate(-323.8 -248.5)"/><path class="cls-1" d="M375.9,268.1a.74.74,0,0,1-.8.8.82.82,0,0,1-.9-.8.74.74,0,0,1,.8-.8C375.6,267.3,375.9,267.6,375.9,268.1Z" transform="translate(-323.8 -248.5)"/><path class="cls-1" d="M386.1,260.9a.8.8,0,1,1-.8.8A.79.79,0,0,1,386.1,260.9Z" transform="translate(-323.8 -248.5)"/><path class="cls-1" d="M433.3,329.7a.82.82,0,0,1,.8.9c0,.5-.3.7-.8.8a.86.86,0,0,1-.8-.8C432.5,330,432.8,329.7,433.3,329.7Z" transform="translate(-323.8 -248.5)"/><path class="cls-1" d="M422.9,336.9c.1.4-.4.8-.8.8a.74.74,0,0,1-.8-.8.79.79,0,0,1,.8-.8A.74.74,0,0,1,422.9,336.9Z" transform="translate(-323.8 -248.5)"/><path class="cls-1" d="M359.3,291.1a.8.8,0,1,1-.8.8A.86.86,0,0,1,359.3,291.1Z" transform="translate(-323.8 -248.5)"/><path class="cls-1" d="M440.2,266.9a.7.7,0,1,1,1.4,0,.85.85,0,0,1-.7.7A.68.68,0,0,1,440.2,266.9Z" transform="translate(-323.8 -248.5)"/><path class="cls-1" d="M453,289.1a.7.7,0,0,1,1.4,0,.86.86,0,0,1-.8.7A.67.67,0,0,1,453,289.1Z" transform="translate(-323.8 -248.5)"/><path class="cls-1" d="M361.5,282.4a.68.68,0,0,1,.7.7,1.12,1.12,0,0,1-.7.8.68.68,0,0,1-.7-.7A.71.71,0,0,1,361.5,282.4Z" transform="translate(-323.8 -248.5)"/><path class="cls-1" d="M397.1,255.9a.6.6,0,1,1,.6-.6A.53.53,0,0,1,397.1,255.9Z" transform="translate(-323.8 -248.5)"/><path class="cls-1" d="M357.5,300.7a.6.6,0,1,1-.6-.6A.53.53,0,0,1,357.5,300.7Z" transform="translate(-323.8 -248.5)"/><path class="cls-1" d="M402.9,340.9a.6.6,0,1,1-.6-.6A.53.53,0,0,1,402.9,340.9Z" transform="translate(-323.8 -248.5)"/><path class="cls-1" d="M376.1,333.3c.2,0,.6.4.5.6s-.4.5-.6.5a.65.65,0,0,1-.5-.6C375.5,333.6,375.9,333.3,376.1,333.3Z" transform="translate(-323.8 -248.5)"/><path class="cls-1" d="M364.5,274.5c0,.2-.3.6-.5.6a.74.74,0,0,1-.6-.6.9.9,0,0,1,.6-.6C364.2,274,364.5,274.3,364.5,274.5Z" transform="translate(-323.8 -248.5)"/><path class="cls-1" d="M426.1,253.5c0,.3-.1.4-.4.4s-.4-.1-.4-.4.1-.4.4-.4S426.1,253.2,426.1,253.5Z" transform="translate(-323.8 -248.5)"/><path class="cls-1" d="M360.9,320.1c.3,0,.4.1.4.4s-.1.4-.4.4-.4-.1-.4-.4S360.6,320.1,360.9,320.1Z" transform="translate(-323.8 -248.5)"/><path class="cls-1" d="M444.7,324.1c0,.3-.1.4-.4.4s-.4-.1-.4-.4.1-.4.4-.4A.37.37,0,0,1,444.7,324.1Z" transform="translate(-323.8 -248.5)"/><path class="cls-1" d="M388.5,253.3c-.1-.2-.2-.3-.2-.4s.1-.2.3-.2.3.1.2.3S388.6,253.1,388.5,253.3Z" transform="translate(-323.8 -248.5)"/><path class="cls-1" d="M417,250.9q.45,0,.3.3c0,.1-.2.2-.3.2s-.3-.1-.2-.3Z" transform="translate(-323.8 -248.5)"/><path class="cls-1" d="M354.5,309.9c-.1-.2-.3-.3-.3-.4s.1-.3.2-.2.3.1.3.2S354.7,309.7,354.5,309.9Z" transform="translate(-323.8 -248.5)"/><path class="cls-1" d="M450,269.3c-.2.1-.3.3-.4.3a.27.27,0,0,1-.3-.3c0-.2.1-.3.2-.3A2.19,2.19,0,0,1,450,269.3Z" transform="translate(-323.8 -248.5)"/><path class="cls-1" d="M457.6,308.5c.1.2.3.3.3.4s-.1.2-.2.3a.27.27,0,0,1-.3-.3C457.4,308.8,457.5,308.7,457.6,308.5Z" transform="translate(-323.8 -248.5)"/><path class="cls-1" d="M377.7,259.3c-.2.1-.2.3-.3.3s-.3-.1-.3-.2.1-.3.2-.3S377.5,259.2,377.7,259.3Z" transform="translate(-323.8 -248.5)"/><path class="cls-1" d="M408.2,248.5c.1.2.3.3.3.4s-.1.2-.2.3a.27.27,0,0,1-.3-.3C408,248.8,408.1,248.7,408.2,248.5Z" transform="translate(-323.8 -248.5)"/><path class="cls-1" d="M443.2,258.1c.3,0,.4.1.4.3a.22.22,0,0,1-.2.2.27.27,0,0,1-.3-.3C443,258.2,443.1,258.1,443.2,258.1Z" transform="translate(-323.8 -248.5)"/><path class="cls-1" d="M367.7,331.5c-.2.1-.3.2-.4.2s-.2-.2-.2-.3.1-.3.2-.2A1.38,1.38,0,0,0,367.7,331.5Z" transform="translate(-323.8 -248.5)"/><path class="cls-1" d="M456,280.7c-.1-.2-.2-.3-.2-.4s.1-.2.3-.2.3.1.2.3Z" transform="translate(-323.8 -248.5)"/><path class="cls-1" d="M434.4,256.3c-.1-.2-.2-.3-.2-.4s.1-.2.3-.2.3.1.2.3S434.6,256.1,434.4,256.3Z" transform="translate(-323.8 -248.5)"/><path class="cls-1" d="M366.2,265.4q.45,0,.3.3c0,.1-.2.2-.3.2s-.3-.1-.2-.3A.22.22,0,0,0,366.2,265.4Z" transform="translate(-323.8 -248.5)"/><path class="cls-2" d="M324.4,332.1V272h21.8c6.5,0,12,1.3,16.4,4a25.74,25.74,0,0,1,9.9,10.8,34.13,34.13,0,0,1,3.3,15.1,33.32,33.32,0,0,1-3.6,15.9,26,26,0,0,1-10.3,10.5,31.43,31.43,0,0,1-15.7,3.7H324.4ZM364.1,302a24,24,0,0,0-2.1-10.3,15.22,15.22,0,0,0-6.1-6.9,17.74,17.74,0,0,0-9.7-2.5H336v39.6h10.2a17.65,17.65,0,0,0,9.8-2.6,16.73,16.73,0,0,0,6-7.1A23.85,23.85,0,0,0,364.1,302Z" transform="translate(-323.8 -248.5)"/><path class="cls-2" d="M385,332.1V272h25.5a18.08,18.08,0,0,1,7.7,1.7,19.64,19.64,0,0,1,6.1,4.6,21.17,21.17,0,0,1,3.9,6.4,20.16,20.16,0,0,1,1.4,7.3,21.86,21.86,0,0,1-2.3,9.6,18.9,18.9,0,0,1-6.5,7.5A17.14,17.14,0,0,1,411,312H396.7v20.2H385Zm11.7-30.4h13.5a6.45,6.45,0,0,0,3.9-1.2,8.51,8.51,0,0,0,2.7-3.4,13.63,13.63,0,0,0,1-5.1,11.89,11.89,0,0,0-1.1-5.3,9.6,9.6,0,0,0-3-3.3,6.79,6.79,0,0,0-3.9-1.1h-13v19.4Z" transform="translate(-323.8 -248.5)"/><path class="cls-2" d="M486.9,332.1V292.6L471.4,322h-6.5l-15.4-29.4v39.5H437.8V272h12.6l17.7,34.1L486,272h12.5v60.1Z" transform="translate(-323.8 -248.5)"/><path class="cls-2" d="M323.8,353v-8.6h2.9a4.14,4.14,0,0,1,2.3.6,3.64,3.64,0,0,1,1.4,1.6,5.45,5.45,0,0,1,.5,2.2,5.56,5.56,0,0,1-.5,2.3,3.39,3.39,0,0,1-1.4,1.5,5.09,5.09,0,0,1-2.2.5h-3Zm6.2-4.4a3.42,3.42,0,0,0-.4-1.8,3,3,0,0,0-2.9-1.8h-2.1v7.1h2.1a3.45,3.45,0,0,0,1.8-.5,2.37,2.37,0,0,0,1.1-1.3A2.86,2.86,0,0,0,330,348.6Z" transform="translate(-323.8 -248.5)"/><path class="cls-2" d="M335,353.1a2.77,2.77,0,0,1-1.3-.3,3.59,3.59,0,0,1-1-.7,6.07,6.07,0,0,1-.7-1,2.74,2.74,0,0,1-.2-1.3,2.93,2.93,0,0,1,.4-1.6,3.18,3.18,0,0,1,1.1-1.2,2.93,2.93,0,0,1,1.6-.4,2.73,2.73,0,0,1,1.6.4,4.26,4.26,0,0,1,1.1,1.2,2.93,2.93,0,0,1,.4,1.6v.3h-5.4a2.14,2.14,0,0,0,.4,1.2,2,2,0,0,0,.8.8,2,2,0,0,0,1.1.3,2.66,2.66,0,0,0,1.2-.3,2,2,0,0,0,.8-.8l.7.2a1.56,1.56,0,0,1-.6.8l-.9.6A1.82,1.82,0,0,1,335,353.1Zm-2.3-3.6h4.7a2.14,2.14,0,0,0-.4-1.2,3,3,0,0,0-.8-.8,2.17,2.17,0,0,0-2.2,0,3,3,0,0,0-.8.8A2.08,2.08,0,0,0,332.7,349.5Z" transform="translate(-323.8 -248.5)"/><path class="cls-2" d="M341.3,353l-2.6-6.3h.9l2.2,5.5,2.2-5.5h.8l-2.6,6.3Z" transform="translate(-323.8 -248.5)"/><path class="cls-2" d="M348.6,353.1a2.77,2.77,0,0,1-1.3-.3,3.59,3.59,0,0,1-1-.7,6.07,6.07,0,0,1-.7-1,2.74,2.74,0,0,1-.2-1.3,2.93,2.93,0,0,1,.4-1.6,3.18,3.18,0,0,1,1.1-1.2,2.93,2.93,0,0,1,1.6-.4,2.73,2.73,0,0,1,1.6.4,4.26,4.26,0,0,1,1.1,1.2,2.93,2.93,0,0,1,.4,1.6v.3h-5.4a2.14,2.14,0,0,0,.4,1.2,2,2,0,0,0,.8.8,2,2,0,0,0,1.1.3,2.66,2.66,0,0,0,1.2-.3,2,2,0,0,0,.8-.8l.7.2a1.56,1.56,0,0,1-.6.8l-.9.6A1.82,1.82,0,0,1,348.6,353.1Zm-2.3-3.6H351a2.14,2.14,0,0,0-.4-1.2,3,3,0,0,0-.8-.8,2.17,2.17,0,0,0-2.2,0,3,3,0,0,0-.8.8A3.08,3.08,0,0,0,346.3,349.5Z" transform="translate(-323.8 -248.5)"/><path class="cls-2" d="M353.1,344.1h.8v7.5a.85.85,0,0,0,.2.6.6.6,0,0,0,.4.1h.4c.1,0,.3-.1.4-.1l.1.7a4.17,4.17,0,0,1-.6.2c-.2,0-.4.1-.6.1A1.06,1.06,0,0,1,353,352v-7.9Z" transform="translate(-323.8 -248.5)"/><path class="cls-2" d="M359.1,353.1a2.77,2.77,0,0,1-1.3-.3,3.59,3.59,0,0,1-1-.7,2.07,2.07,0,0,1-.6-1,4,4,0,0,1,0-2.5,2.29,2.29,0,0,1,.7-1,3.59,3.59,0,0,1,1-.7,3,3,0,0,1,2.6,0,3.51,3.51,0,0,1,1.7,1.7,2.74,2.74,0,0,1,.2,1.3,5,5,0,0,1-.2,1.2,3.33,3.33,0,0,1-.6,1,3.59,3.59,0,0,1-1,.7A5.56,5.56,0,0,1,359.1,353.1Zm-2.3-3.2a2.77,2.77,0,0,0,.3,1.3,2.36,2.36,0,0,0,.8.9,2.13,2.13,0,0,0,1.2.3,2.66,2.66,0,0,0,1.2-.3,2.36,2.36,0,0,0,.8-.9,3,3,0,0,0,0-2.6,2.36,2.36,0,0,0-.8-.9,2.13,2.13,0,0,0-1.2-.3,2.66,2.66,0,0,0-1.2.3,2.36,2.36,0,0,0-.8.9A2.77,2.77,0,0,0,356.8,349.9Z" transform="translate(-323.8 -248.5)"/><path class="cls-2" d="M366.8,353.1a2.3,2.3,0,0,1-1.4-.4,4.74,4.74,0,0,1-1-1v3.9h-.8v-8.9h.7v1.2a4.74,4.74,0,0,1,1-1,3.26,3.26,0,0,1,1.3-.4,2.66,2.66,0,0,1,1.2.3,2.18,2.18,0,0,1,.9.7,2.66,2.66,0,0,1,.6,1,5,5,0,0,1,.2,1.2,3.6,3.6,0,0,1-1.4,2.8A2,2,0,0,1,366.8,353.1Zm-.2-.7a2.39,2.39,0,0,0,.9-.2,1.87,1.87,0,0,0,.7-.6,2.18,2.18,0,0,0,.5-.8,2.92,2.92,0,0,0,.2-.9,3.55,3.55,0,0,0-.2-1,2.18,2.18,0,0,0-.5-.8,5.55,5.55,0,0,0-.8-.6,1.49,1.49,0,0,0-.9-.2,2,2,0,0,0-.7.1l-.6.3a1.21,1.21,0,0,0-.5.5l-.3.6v1.9a2.18,2.18,0,0,0,.5.8,5.55,5.55,0,0,0,.8.6A1.61,1.61,0,0,0,366.6,352.4Z" transform="translate(-323.8 -248.5)"/><path class="cls-2" d="M380.5,353h-.8v-3.5a2.36,2.36,0,0,0-.4-1.6,1.23,1.23,0,0,0-1-.5,2.11,2.11,0,0,0-1.3.5,2.87,2.87,0,0,0-.8,1.3V353h-.8v-3.5a3.23,3.23,0,0,0-.3-1.6,1.23,1.23,0,0,0-1-.5,2.11,2.11,0,0,0-1.3.5,2.87,2.87,0,0,0-.8,1.3v3.9h-.8v-6.3h.8v1.4a2.71,2.71,0,0,1,1-1.1,3.26,3.26,0,0,1,1.4-.4,1.84,1.84,0,0,1,1.3.4,2.28,2.28,0,0,1,.6,1.2,3.18,3.18,0,0,1,1.1-1.2,2.3,2.3,0,0,1,1.4-.4,2,2,0,0,1,.9.2,2.65,2.65,0,0,1,.6.5,1.9,1.9,0,0,1,.3.9c0,.4.1.7.1,1.1V353Z" transform="translate(-323.8 -248.5)"/><path class="cls-2" d="M385,353.1a2.77,2.77,0,0,1-1.3-.3,3.59,3.59,0,0,1-1-.7,6.07,6.07,0,0,1-.7-1,2.74,2.74,0,0,1-.2-1.3,2.93,2.93,0,0,1,.4-1.6,3.18,3.18,0,0,1,1.1-1.2,2.93,2.93,0,0,1,1.6-.4,2.73,2.73,0,0,1,1.6.4,4.26,4.26,0,0,1,1.1,1.2,2.93,2.93,0,0,1,.4,1.6v.3h-5.4a2.14,2.14,0,0,0,.4,1.2,2,2,0,0,0,.8.8,2,2,0,0,0,1.1.3,2.66,2.66,0,0,0,1.2-.3,2,2,0,0,0,.8-.8l.7.2a1.56,1.56,0,0,1-.6.8l-.9.6A2,2,0,0,1,385,353.1Zm-2.4-3.6h4.7a2.14,2.14,0,0,0-.4-1.2,3,3,0,0,0-.8-.8,2.17,2.17,0,0,0-2.2,0,3,3,0,0,0-.8.8A3.08,3.08,0,0,0,382.6,349.5Z" transform="translate(-323.8 -248.5)"/><path class="cls-2" d="M394.7,353h-.8v-3.5a3.23,3.23,0,0,0-.3-1.6,1.23,1.23,0,0,0-1-.5,4.4,4.4,0,0,0-1,.2,5.55,5.55,0,0,0-.8.6,4.05,4.05,0,0,0-.5.9V353h-.8v-6.3h.8v1.4a2.7,2.7,0,0,1,.7-.8,4.05,4.05,0,0,1,.9-.5,3.59,3.59,0,0,1,1.1-.2,2.92,2.92,0,0,1,.9.2,2.65,2.65,0,0,1,.6.5,1.9,1.9,0,0,1,.3.9c0,.4.1.7.1,1.1V353Z" transform="translate(-323.8 -248.5)"/><path class="cls-2" d="M399.5,352.7c-.1,0-.2.1-.3.1s-.3.1-.5.2a1.27,1.27,0,0,1-.6.1,1.7,1.7,0,0,1-.7-.1,1,1,0,0,1-.5-.4,1.45,1.45,0,0,1-.2-.7v-4.5h-.9v-.7h.9v-2.1h.8v2.1H399v.7h-1.5v4.3a.68.68,0,0,0,.7.7,1.27,1.27,0,0,0,.6-.1c.2-.1.3-.1.3-.2Z" transform="translate(-323.8 -248.5)"/><path class="cls-2" d="M403.8,353v-8.6h3.6a3,3,0,0,1,1,.2,5.55,5.55,0,0,1,.8.6,4.05,4.05,0,0,1,.5.9,3,3,0,0,1,.2,1,2.77,2.77,0,0,1-.3,1.3,2.19,2.19,0,0,1-.9,1,2,2,0,0,1-1.3.4h-2.8V353Zm.8-4h2.8a1.61,1.61,0,0,0,.9-.3,2,2,0,0,0,.6-.7,2.6,2.6,0,0,0,0-2c-.1-.3-.4-.5-.6-.7a1.61,1.61,0,0,0-.9-.3h-2.7v4Z" transform="translate(-323.8 -248.5)"/><path class="cls-2" d="M414.3,347.4a2.69,2.69,0,0,0-1.5.5,2.73,2.73,0,0,0-.9,1.2V353h-.8v-6.3h.8v1.5a3.13,3.13,0,0,1,.9-1.1,2.7,2.7,0,0,1,1.1-.5h.4v.8Z" transform="translate(-323.8 -248.5)"/><path class="cls-2" d="M418.1,353.1a2.77,2.77,0,0,1-1.3-.3,3.59,3.59,0,0,1-1-.7,2.07,2.07,0,0,1-.6-1,4,4,0,0,1,0-2.5,2.29,2.29,0,0,1,.7-1,3.59,3.59,0,0,1,1-.7,3,3,0,0,1,2.6,0,3.51,3.51,0,0,1,1.7,1.7,2.74,2.74,0,0,1,.2,1.3,5,5,0,0,1-.2,1.2,3.33,3.33,0,0,1-.6,1,3.59,3.59,0,0,1-1,.7A4.43,4.43,0,0,1,418.1,353.1Zm-2.3-3.2a2.77,2.77,0,0,0,.3,1.3,2.36,2.36,0,0,0,.8.9,2.13,2.13,0,0,0,1.2.3,2.66,2.66,0,0,0,1.2-.3,2.36,2.36,0,0,0,.8-.9,3,3,0,0,0,0-2.6,2.36,2.36,0,0,0-.8-.9,2.13,2.13,0,0,0-1.2-.3,2.66,2.66,0,0,0-1.2.3,2.36,2.36,0,0,0-.8.9A2.77,2.77,0,0,0,415.8,349.9Z" transform="translate(-323.8 -248.5)"/><path class="cls-2" d="M425.4,353.1a2.77,2.77,0,0,1-1.3-.3,3.59,3.59,0,0,1-1-.7,4.13,4.13,0,0,1-.7-1.1,2.74,2.74,0,0,1-.2-1.3,2.93,2.93,0,0,1,.4-1.6,3.18,3.18,0,0,1,1.1-1.2,3.06,3.06,0,0,1,1.7-.4,2.93,2.93,0,0,1,1.6.4,2.13,2.13,0,0,1,1,1.1l-.8.3a2.7,2.7,0,0,0-.7-.8,2,2,0,0,0-1.1-.3,2.66,2.66,0,0,0-1.2.3,2.36,2.36,0,0,0-.8.9,3,3,0,0,0,0,2.6,2.36,2.36,0,0,0,.8.9,2.13,2.13,0,0,0,1.2.3,2.2,2.2,0,0,0,.8-.1,1.61,1.61,0,0,0,.7-.4,1.76,1.76,0,0,0,.4-.5l.8.2a1.56,1.56,0,0,1-.6.8l-.9.6A2.66,2.66,0,0,1,425.4,353.1Z" transform="translate(-323.8 -248.5)"/><path class="cls-2" d="M432.1,353.1a2.77,2.77,0,0,1-1.3-.3,3.59,3.59,0,0,1-1-.7,6.07,6.07,0,0,1-.7-1,2.74,2.74,0,0,1-.2-1.3,2.93,2.93,0,0,1,.4-1.6,3.18,3.18,0,0,1,1.1-1.2,2.93,2.93,0,0,1,1.6-.4,2.73,2.73,0,0,1,1.6.4,4.26,4.26,0,0,1,1.1,1.2,2.93,2.93,0,0,1,.4,1.6v.3h-5.4a2.14,2.14,0,0,0,.4,1.2,2,2,0,0,0,.8.8,2,2,0,0,0,1.1.3,2.66,2.66,0,0,0,1.2-.3,2,2,0,0,0,.8-.8l.7.2a1.56,1.56,0,0,1-.6.8l-.9.6A3.59,3.59,0,0,1,432.1,353.1Zm-2.4-3.6h4.7a2.14,2.14,0,0,0-.4-1.2,3,3,0,0,0-.8-.8,2.17,2.17,0,0,0-2.2,0,3,3,0,0,0-.8.8A3.08,3.08,0,0,0,429.7,349.5Z" transform="translate(-323.8 -248.5)"/><path class="cls-2" d="M438.5,353.1a3.19,3.19,0,0,1-1.4-.3,4.18,4.18,0,0,1-1.2-.8l.3-.6a3.38,3.38,0,0,0,1.1.7,2.79,2.79,0,0,0,2.3-.1,1,1,0,0,0,.5-.8,1.07,1.07,0,0,0-.2-.6l-.6-.3c-.3-.1-.6-.2-1-.3a3.58,3.58,0,0,1-1.1-.4,1.79,1.79,0,0,1-.7-.5,1.88,1.88,0,0,1-.2-.8,1.49,1.49,0,0,1,.3-1,1.46,1.46,0,0,1,.9-.6,4,4,0,0,1,2.5,0,3.49,3.49,0,0,1,.9.6l-.4.6a1.56,1.56,0,0,0-.8-.6,3.55,3.55,0,0,0-1-.2,1.48,1.48,0,0,0-.7.1l-.6.3a1.42,1.42,0,0,0-.2.6.76.76,0,0,0,.2.5,2.19,2.19,0,0,0,.5.3,6.89,6.89,0,0,0,.8.3c.5.1.9.3,1.3.4a1.58,1.58,0,0,1,.8.5,1.22,1.22,0,0,1,.3.9,1.62,1.62,0,0,1-.7,1.4A2.49,2.49,0,0,1,438.5,353.1Z" transform="translate(-323.8 -248.5)"/><path class="cls-2" d="M444.4,353.1a3.19,3.19,0,0,1-1.4-.3,4.18,4.18,0,0,1-1.2-.8l.3-.6a3.38,3.38,0,0,0,1.1.7,2.79,2.79,0,0,0,2.3-.1,1,1,0,0,0,.5-.8,1.07,1.07,0,0,0-.2-.6l-.6-.3c-.3-.1-.6-.2-1-.3a3.58,3.58,0,0,1-1.1-.4,1.79,1.79,0,0,1-.7-.5,1.88,1.88,0,0,1-.2-.8,1.49,1.49,0,0,1,.3-1,1.46,1.46,0,0,1,.9-.6,4,4,0,0,1,2.5,0,3.49,3.49,0,0,1,.9.6l-.4.6a1.56,1.56,0,0,0-.8-.6,3.55,3.55,0,0,0-1-.2,1.48,1.48,0,0,0-.7.1l-.6.3a1.42,1.42,0,0,0-.2.6.76.76,0,0,0,.2.5,2.19,2.19,0,0,0,.5.3,6.89,6.89,0,0,0,.8.3c.5.1.9.3,1.3.4a1.58,1.58,0,0,1,.8.5,1.22,1.22,0,0,1,.3.9,1.62,1.62,0,0,1-.7,1.4A2.81,2.81,0,0,1,444.4,353.1Z" transform="translate(-323.8 -248.5)"/><path class="cls-2" d="M459.1,353v-7l-3.1,5.5h-.5l-3.1-5.5v7h-.9v-8.6h.9l3.4,5.9,3.4-5.9h.9V353Z" transform="translate(-323.8 -248.5)"/><path class="cls-2" d="M461.4,351.2a1.69,1.69,0,0,1,.3-1,2.18,2.18,0,0,1,.9-.7,3.18,3.18,0,0,1,1.4-.2,3.75,3.75,0,0,1,1,.1c.4.1.6.1.9.2V349a1.71,1.71,0,0,0-1.8-1.8,3.55,3.55,0,0,0-1,.2,2.66,2.66,0,0,0-1,.6l-.3-.6a3.38,3.38,0,0,1,1.2-.6,5,5,0,0,1,1.2-.2,2.14,2.14,0,0,1,1.8.7,2.27,2.27,0,0,1,.7,1.8V352c0,.1,0,.2.1.2s.1.1.2.1v.7h-.3a.69.69,0,0,1-.7-.6v-.5a2.84,2.84,0,0,1-1.1.8,3.53,3.53,0,0,1-1.4.3,2,2,0,0,1-1.1-.3,2.7,2.7,0,0,1-.8-.7A1.88,1.88,0,0,1,461.4,351.2Zm4.3.4c.1-.1.2-.2.2-.3s.1-.2.1-.3v-.9a2.92,2.92,0,0,0-.9-.2,2.77,2.77,0,0,0-.9-.1,2.65,2.65,0,0,0-1.4.3,1.1,1.1,0,0,0-.5,1,1.85,1.85,0,0,0,.2.7,1.21,1.21,0,0,0,.5.5,1.88,1.88,0,0,0,.8.2,3.59,3.59,0,0,0,1.1-.2A2.7,2.7,0,0,0,465.7,351.6Z" transform="translate(-323.8 -248.5)"/><path class="cls-2" d="M473.9,353h-.8v-3.5a3.23,3.23,0,0,0-.3-1.6,1.23,1.23,0,0,0-1-.5,4.4,4.4,0,0,0-1,.2,5.55,5.55,0,0,0-.8.6,4.05,4.05,0,0,0-.5.9V353h-.8v-6.3h.8v1.4a2.7,2.7,0,0,1,.7-.8,4.05,4.05,0,0,1,.9-.5,3.59,3.59,0,0,1,1.1-.2,2.92,2.92,0,0,1,.9.2c.3.1.4.3.6.5a1.9,1.9,0,0,1,.3.9,3.75,3.75,0,0,1,.1,1.1V353Z" transform="translate(-323.8 -248.5)"/><path class="cls-2" d="M475.1,351.2a1.69,1.69,0,0,1,.3-1,2.18,2.18,0,0,1,.9-.7,3.18,3.18,0,0,1,1.4-.2,3.75,3.75,0,0,1,1,.1c.4.1.6.1.9.2V349a1.71,1.71,0,0,0-1.8-1.8,3.55,3.55,0,0,0-1,.2,2.66,2.66,0,0,0-1,.6l-.3-.6a3.38,3.38,0,0,1,1.2-.6,5,5,0,0,1,1.2-.2,2.14,2.14,0,0,1,1.8.7,2.27,2.27,0,0,1,.7,1.8V352c0,.1,0,.2.1.2s.1.1.2.1v.7h-.3a.69.69,0,0,1-.7-.6v-.5a2.84,2.84,0,0,1-1.1.8,3.53,3.53,0,0,1-1.4.3,2,2,0,0,1-1.1-.3,2.7,2.7,0,0,1-.8-.7A1.88,1.88,0,0,1,475.1,351.2Zm4.3.4c.1-.1.2-.2.2-.3s.1-.2.1-.3v-.9a2.92,2.92,0,0,0-.9-.2,2.77,2.77,0,0,0-.9-.1,2.65,2.65,0,0,0-1.4.3,1.1,1.1,0,0,0-.5,1,1.85,1.85,0,0,0,.2.7,1.21,1.21,0,0,0,.5.5,1.88,1.88,0,0,0,.8.2,3.59,3.59,0,0,0,1.1-.2A2.7,2.7,0,0,0,479.4,351.6Z" transform="translate(-323.8 -248.5)"/><path class="cls-2" d="M484.8,353.1a2.66,2.66,0,0,1-1.2-.3,2.18,2.18,0,0,1-.9-.7,2.66,2.66,0,0,1-.6-1,5,5,0,0,1-.2-1.2,5.85,5.85,0,0,1,.2-1.3,3,3,0,0,1,.6-1.1,5.5,5.5,0,0,1,.9-.7,2.66,2.66,0,0,1,1.2-.3,2.3,2.3,0,0,1,1.4.4,4.74,4.74,0,0,1,1,1v-1.3h.7v6.3a2.41,2.41,0,0,1-.4,1.5,3.13,3.13,0,0,1-1.1.9,4,4,0,0,1-1.5.3,2.86,2.86,0,0,1-1.7-.4,5.24,5.24,0,0,1-1.1-1l.5-.4a2.84,2.84,0,0,0,1,.9,3.08,3.08,0,0,0,1.3.3,3.59,3.59,0,0,0,1.1-.2,1.78,1.78,0,0,0,.8-.7,2,2,0,0,0,.3-1.1v-1.3a3.18,3.18,0,0,1-1,1A2,2,0,0,1,484.8,353.1Zm.2-.7a1.48,1.48,0,0,0,.7-.1,2.09,2.09,0,0,0,.6-.4c.2-.2.4-.3.5-.5a1.42,1.42,0,0,0,.2-.6v-2a2.18,2.18,0,0,0-.5-.8,5.55,5.55,0,0,0-.8-.6,2.92,2.92,0,0,0-.9-.2,3,3,0,0,0-1,.2,2,2,0,0,0-.7.6,2,2,0,0,0-.4.8,2.92,2.92,0,0,0-.2.9,3.55,3.55,0,0,0,.2,1,2.18,2.18,0,0,0,.5.8,5.55,5.55,0,0,0,.8.6A2.24,2.24,0,0,0,485,352.4Z" transform="translate(-323.8 -248.5)"/><path class="cls-2" d="M492.5,353.1a2.77,2.77,0,0,1-1.3-.3,3.59,3.59,0,0,1-1-.7,6.07,6.07,0,0,1-.7-1,2.74,2.74,0,0,1-.2-1.3,2.93,2.93,0,0,1,.4-1.6,3.18,3.18,0,0,1,1.1-1.2,2.93,2.93,0,0,1,1.6-.4,2.73,2.73,0,0,1,1.6.4,4.26,4.26,0,0,1,1.1,1.2,2.93,2.93,0,0,1,.4,1.6v.3h-5.4a2.14,2.14,0,0,0,.4,1.2,2,2,0,0,0,.8.8,2,2,0,0,0,1.1.3,2.66,2.66,0,0,0,1.2-.3,2,2,0,0,0,.8-.8l.7.2a1.56,1.56,0,0,1-.6.8l-.9.6A3.59,3.59,0,0,1,492.5,353.1Zm-2.3-3.6h4.7a2.14,2.14,0,0,0-.4-1.2,3,3,0,0,0-.8-.8,2.17,2.17,0,0,0-2.2,0,3,3,0,0,0-.8.8A1.58,1.58,0,0,0,490.2,349.5Z" transform="translate(-323.8 -248.5)"/><path class="cls-2" d="M500.1,347.4a2.69,2.69,0,0,0-1.5.5,2.73,2.73,0,0,0-.9,1.2V353h-.8v-6.3h.8v1.5a3.13,3.13,0,0,1,.9-1.1,2.7,2.7,0,0,1,1.1-.5h.4v.8Z" transform="translate(-323.8 -248.5)"/></svg>